<?xml version="1.0" encoding="UTF-8" standalone="no"?>
<!-- Created with Inkscape (http://www.inkscape.org/) -->

<svg
   xmlns:dc="http://purl.org/dc/elements/1.1/"
   xmlns:cc="http://creativecommons.org/ns#"
   xmlns:rdf="http://www.w3.org/1999/02/22-rdf-syntax-ns#"
   xmlns:svg="http://www.w3.org/2000/svg"
   xmlns="http://www.w3.org/2000/svg"
   xmlns:sodipodi="http://sodipodi.sourceforge.net/DTD/sodipodi-0.dtd"
   xmlns:inkscape="http://www.inkscape.org/namespaces/inkscape"
   width="210mm"
   height="297mm"
   id="svg2"
   version="1.1"
   inkscape:version="0.48.3.1 r9886"
   sodipodi:docname="Neues Dokument 1">
  <defs
     id="defs4" />
  <sodipodi:namedview
     id="base"
     pagecolor="#ffffff"
     bordercolor="#666666"
     borderopacity="1.0"
     inkscape:pageopacity="0.0"
     inkscape:pageshadow="2"
     inkscape:zoom="0.49497475"
     inkscape:cx="-39.582907"
     inkscape:cy="496.29204"
     inkscape:document-units="px"
     inkscape:current-layer="layer1"
     showgrid="false"
     inkscape:window-width="978"
     inkscape:window-height="926"
     inkscape:window-x="92"
     inkscape:window-y="86"
     inkscape:window-maximized="0" />
  <metadata
     id="metadata7">
    <rdf:RDF>
      <cc:Work
         rdf:about="">
        <dc:format>image/svg+xml</dc:format>
        <dc:type
           rdf:resource="http://purl.org/dc/dcmitype/StillImage" />
        <dc:title></dc:title>
      </cc:Work>
    </rdf:RDF>
  </metadata>
  <g
     inkscape:label="Ebene 1"
     inkscape:groupmode="layer"
     id="layer1">
    <path
       sodipodi:type="arc"
       style="opacity:1;fill:#3366cc;stroke:none;stroke-width:1.41732287000000001;stroke-miterlimit:4;stroke-opacity:1;stroke-dasharray:none;stroke-dashoffset:0;fill-opacity:1"
       id="path2985"
       sodipodi:cx="159.28572"
       sodipodi:cy="124.50504"
       sodipodi:rx="17.857143"
       sodipodi:ry="17.857143"
       d="m 177.14286,124.50504 a 17.857143,17.857143 0 1 1 -35.71428,0 17.857143,17.857143 0 1 1 35.71428,0 z" />
    <path
       d="m 177.14286,124.50504 a 17.857143,17.857143 0 1 1 -35.71428,0 17.857143,17.857143 0 1 1 35.71428,0 z"
       sodipodi:ry="17.857143"
       sodipodi:rx="17.857143"
       sodipodi:cy="124.50504"
       sodipodi:cx="159.28572"
       id="path3757"
       style="fill:#dc3912;fill-opacity:1;stroke:none"
       sodipodi:type="arc"
       transform="translate(0,40)" />
    <path
       transform="translate(0,80)"
       sodipodi:type="arc"
       style="fill:#ff9900;fill-opacity:1;stroke:none"
       id="path3759"
       sodipodi:cx="159.28572"
       sodipodi:cy="124.50504"
       sodipodi:rx="17.857143"
       sodipodi:ry="17.857143"
       d="m 177.14286,124.50504 a 17.857143,17.857143 0 1 1 -35.71428,0 17.857143,17.857143 0 1 1 35.71428,0 z" />
    <path
       d="m 177.14286,124.50504 a 17.857143,17.857143 0 1 1 -35.71428,0 17.857143,17.857143 0 1 1 35.71428,0 z"
       sodipodi:ry="17.857143"
       sodipodi:rx="17.857143"
       sodipodi:cy="124.50504"
       sodipodi:cx="159.28572"
       id="path3761"
       style="fill:#109618;fill-opacity:1;stroke:none"
       sodipodi:type="arc"
       transform="translate(0,120)" />
    <path
       transform="translate(0,160)"
       sodipodi:type="arc"
       style="fill:#990099;fill-opacity:1;stroke:none"
       id="path3763"
       sodipodi:cx="159.28572"
       sodipodi:cy="124.50504"
       sodipodi:rx="17.857143"
       sodipodi:ry="17.857143"
       d="m 177.14286,124.50504 a 17.857143,17.857143 0 1 1 -35.71428,0 17.857143,17.857143 0 1 1 35.71428,0 z" />
    <path
       d="m 177.14286,124.50504 a 17.857143,17.857143 0 1 1 -35.71428,0 17.857143,17.857143 0 1 1 35.71428,0 z"
       sodipodi:ry="17.857143"
       sodipodi:rx="17.857143"
       sodipodi:cy="124.50504"
       sodipodi:cx="159.28572"
       id="path3765"
       style="fill:#0099c6;fill-opacity:1;stroke:none"
       sodipodi:type="arc"
       transform="translate(0,200)" />
    <path
       transform="translate(0,240)"
       sodipodi:type="arc"
       style="fill:#dd4477;fill-opacity:1;stroke:none"
       id="path3767"
       sodipodi:cx="159.28572"
       sodipodi:cy="124.50504"
       sodipodi:rx="17.857143"
       sodipodi:ry="17.857143"
       d="m 177.14286,124.50504 a 17.857143,17.857143 0 1 1 -35.71428,0 17.857143,17.857143 0 1 1 35.71428,0 z" />
    <path
       d="m 177.14286,124.50504 a 17.857143,17.857143 0 1 1 -35.71428,0 17.857143,17.857143 0 1 1 35.71428,0 z"
       sodipodi:ry="17.857143"
       sodipodi:rx="17.857143"
       sodipodi:cy="124.50504"
       sodipodi:cx="159.28572"
       id="path3769"
       style="fill:#66aa00;fill-opacity:1;stroke:none"
       sodipodi:type="arc"
       transform="translate(0,280)" />
    <path
       transform="translate(0,320)"
       sodipodi:type="arc"
       style="fill:#b82e2e;fill-opacity:1;stroke:none"
       id="path3771"
       sodipodi:cx="159.28572"
       sodipodi:cy="124.50504"
       sodipodi:rx="17.857143"
       sodipodi:ry="17.857143"
       d="m 177.14286,124.50504 a 17.857143,17.857143 0 1 1 -35.71428,0 17.857143,17.857143 0 1 1 35.71428,0 z" />
    <path
       d="m 177.14286,124.50504 a 17.857143,17.857143 0 1 1 -35.71428,0 17.857143,17.857143 0 1 1 35.71428,0 z"
       sodipodi:ry="17.857143"
       sodipodi:rx="17.857143"
       sodipodi:cy="124.50504"
       sodipodi:cx="159.28572"
       id="path3773"
       style="fill:#316395;fill-opacity:1;stroke:none"
       sodipodi:type="arc"
       transform="translate(0,360)" />
    <path
       transform="translate(0,400)"
       sodipodi:type="arc"
       style="fill:#994499;fill-opacity:1;stroke:none"
       id="path3775"
       sodipodi:cx="159.28572"
       sodipodi:cy="124.50504"
       sodipodi:rx="17.857143"
       sodipodi:ry="17.857143"
       d="m 177.14286,124.50504 a 17.857143,17.857143 0 1 1 -35.71428,0 17.857143,17.857143 0 1 1 35.71428,0 z" />
    <path
       d="m 177.14286,124.50504 a 17.857143,17.857143 0 1 1 -35.71428,0 17.857143,17.857143 0 1 1 35.71428,0 z"
       sodipodi:ry="17.857143"
       sodipodi:rx="17.857143"
       sodipodi:cy="124.50504"
       sodipodi:cx="159.28572"
       id="path3777"
       style="fill:#22aa99;fill-opacity:1;stroke:none"
       sodipodi:type="arc"
       transform="translate(0,440)" />
    <path
       transform="translate(0,480)"
       sodipodi:type="arc"
       style="fill:#aaaa11;fill-opacity:1;stroke:none"
       id="path3779"
       sodipodi:cx="159.28572"
       sodipodi:cy="124.50504"
       sodipodi:rx="17.857143"
       sodipodi:ry="17.857143"
       d="m 177.14286,124.50504 a 17.857143,17.857143 0 1 1 -35.71428,0 17.857143,17.857143 0 1 1 35.71428,0 z" />
    <path
       d="m 177.14286,124.50504 a 17.857143,17.857143 0 1 1 -35.71428,0 17.857143,17.857143 0 1 1 35.71428,0 z"
       sodipodi:ry="17.857143"
       sodipodi:rx="17.857143"
       sodipodi:cy="124.50504"
       sodipodi:cx="159.28572"
       id="path3781"
       style="fill:#6633cc;fill-opacity:1;stroke:none"
       sodipodi:type="arc"
       transform="translate(0,520)" />
    <path
       transform="translate(0,560)"
       sodipodi:type="arc"
       style="fill:#e67300;fill-opacity:1;stroke:none"
       id="path3783"
       sodipodi:cx="159.28572"
       sodipodi:cy="124.50504"
       sodipodi:rx="17.857143"
       sodipodi:ry="17.857143"
       d="m 177.14286,124.50504 a 17.857143,17.857143 0 1 1 -35.71428,0 17.857143,17.857143 0 1 1 35.71428,0 z" />
    <path
       d="m 177.14286,124.50504 a 17.857143,17.857143 0 1 1 -35.71428,0 17.857143,17.857143 0 1 1 35.71428,0 z"
       sodipodi:ry="17.857143"
       sodipodi:rx="17.857143"
       sodipodi:cy="124.50504"
       sodipodi:cx="159.28572"
       id="path3785"
       style="fill:#8b0707;fill-opacity:1;stroke:none"
       sodipodi:type="arc"
       transform="translate(0,600)" />
    <path
       transform="translate(0,640)"
       sodipodi:type="arc"
       style="fill:#651067;fill-opacity:1;stroke:none"
       id="path3787"
       sodipodi:cx="159.28572"
       sodipodi:cy="124.50504"
       sodipodi:rx="17.857143"
       sodipodi:ry="17.857143"
       d="m 177.14286,124.50504 a 17.857143,17.857143 0 1 1 -35.71428,0 17.857143,17.857143 0 1 1 35.71428,0 z" />
    <path
       d="m 177.14286,124.50504 a 17.857143,17.857143 0 1 1 -35.71428,0 17.857143,17.857143 0 1 1 35.71428,0 z"
       sodipodi:ry="17.857143"
       sodipodi:rx="17.857143"
       sodipodi:cy="124.50504"
       sodipodi:cx="159.28572"
       id="path3789"
       style="fill:#329262;fill-opacity:1;stroke:none"
       sodipodi:type="arc"
       transform="translate(0,680)" />
    <path
       transform="translate(0,720)"
       sodipodi:type="arc"
       style="fill:#5574a6;fill-opacity:1;stroke:none"
       id="path3791"
       sodipodi:cx="159.28572"
       sodipodi:cy="124.50504"
       sodipodi:rx="17.857143"
       sodipodi:ry="17.857143"
       d="m 177.14286,124.50504 a 17.857143,17.857143 0 1 1 -35.71428,0 17.857143,17.857143 0 1 1 35.71428,0 z" />
    <path
       d="m 177.14286,124.50504 a 17.857143,17.857143 0 1 1 -35.71428,0 17.857143,17.857143 0 1 1 35.71428,0 z"
       sodipodi:ry="17.857143"
       sodipodi:rx="17.857143"
       sodipodi:cy="124.50504"
       sodipodi:cx="159.28572"
       id="path3793"
       style="fill:#5574a6;fill-opacity:1;stroke:none"
       sodipodi:type="arc"
       transform="translate(0,720)" />
    <path
       transform="translate(0,760)"
       sodipodi:type="arc"
       style="fill:#3b3eac;fill-opacity:1;stroke:none"
       id="path3795"
       sodipodi:cx="159.28572"
       sodipodi:cy="124.50504"
       sodipodi:rx="17.857143"
       sodipodi:ry="17.857143"
       d="m 177.14286,124.50504 a 17.857143,17.857143 0 1 1 -35.71428,0 17.857143,17.857143 0 1 1 35.71428,0 z" />
  </g>
</svg>
