<?xml version="1.0" encoding="UTF-8" standalone="no"?>
<!-- Created with Inkscape (http://www.inkscape.org/) -->

<svg
   xmlns:dc="http://purl.org/dc/elements/1.1/"
   xmlns:cc="http://creativecommons.org/ns#"
   xmlns:rdf="http://www.w3.org/1999/02/22-rdf-syntax-ns#"
   xmlns:svg="http://www.w3.org/2000/svg"
   xmlns="http://www.w3.org/2000/svg"
   xmlns:sodipodi="http://sodipodi.sourceforge.net/DTD/sodipodi-0.dtd"
   xmlns:inkscape="http://www.inkscape.org/namespaces/inkscape"
   width="299.89096"
   height="341.43665"
   id="svg3243"
   version="1.1"
   inkscape:version="0.48.3.1 r9886"
   sodipodi:docname="apple.svg"
   inkscape:export-filename="/sk-home/bastiaan/Develop/dissertation/lekenpraatje/img/apple.png"
   inkscape:export-xdpi="200"
   inkscape:export-ydpi="200">
  <sodipodi:namedview
     id="base"
     pagecolor="#ffffff"
     bordercolor="#666666"
     borderopacity="1.0"
     inkscape:pageopacity="0.0"
     inkscape:pageshadow="2"
     inkscape:zoom="0.49497475"
     inkscape:cx="23.170089"
     inkscape:cy="28.478966"
     inkscape:document-units="px"
     inkscape:current-layer="layer1"
     showgrid="false"
     inkscape:window-width="1847"
     inkscape:window-height="1141"
     inkscape:window-x="73"
     inkscape:window-y="27"
     inkscape:window-maximized="1"
     fit-margin-top="50"
     fit-margin-left="50"
     fit-margin-right="50"
     fit-margin-bottom="50" />
  <defs
     id="defs3245">
    <marker
       style="overflow:visible"
       id="Arrow2Mendv"
       refX="0"
       refY="0"
       orient="auto"
       inkscape:stockid="Arrow2Mendv">
      <path
         transform="scale(-0.6,-0.6)"
         d="M 8.7185878,4.0337352 -2.2072895,0.01601326 8.7185884,-4.0017078 c -1.7454984,2.3720609 -1.7354408,5.6174519 -6e-7,8.035443 z"
         style="fill:#888a85;fill-rule:evenodd;stroke:#888a85;stroke-width:0.625;stroke-linejoin:round"
         id="path8324"
         inkscape:connector-curvature="0" />
    </marker>
    <marker
       style="overflow:visible"
       id="Arrow2Mendj"
       refX="0"
       refY="0"
       orient="auto"
       inkscape:stockid="Arrow2Mendj">
      <path
         transform="scale(-0.6,-0.6)"
         d="M 8.7185878,4.0337352 -2.2072895,0.01601326 8.7185884,-4.0017078 c -1.7454984,2.3720609 -1.7354408,5.6174519 -6e-7,8.035443 z"
         style="fill:#204a87;fill-rule:evenodd;stroke:#204a87;stroke-width:0.625;stroke-linejoin:round"
         id="path7641"
         inkscape:connector-curvature="0" />
    </marker>
    <marker
       style="overflow:visible"
       id="Arrow2LstartLU"
       refX="0"
       refY="0"
       orient="auto"
       inkscape:stockid="Arrow2LstartLU">
      <path
         transform="matrix(1.1,0,0,1.1,1.1,0)"
         d="M 8.7185878,4.0337352 -2.2072895,0.01601326 8.7185884,-4.0017078 c -1.7454984,2.3720609 -1.7354408,5.6174519 -6e-7,8.035443 z"
         style="fill:#555753;fill-rule:evenodd;stroke:#555753;stroke-width:0.625;stroke-linejoin:round"
         id="path6018"
         inkscape:connector-curvature="0" />
    </marker>
    <marker
       style="overflow:visible"
       id="Arrow2LendEg"
       refX="0"
       refY="0"
       orient="auto"
       inkscape:stockid="Arrow2LendEg">
      <path
         transform="matrix(-1.1,0,0,-1.1,-1.1,0)"
         d="M 8.7185878,4.0337352 -2.2072895,0.01601326 8.7185884,-4.0017078 c -1.7454984,2.3720609 -1.7354408,5.6174519 -6e-7,8.035443 z"
         style="fill:#555753;fill-rule:evenodd;stroke:#555753;stroke-width:0.625;stroke-linejoin:round"
         id="path6021"
         inkscape:connector-curvature="0" />
    </marker>
    <marker
       style="overflow:visible"
       id="Arrow2LstartH"
       refX="0"
       refY="0"
       orient="auto"
       inkscape:stockid="Arrow2LstartH">
      <path
         transform="matrix(1.1,0,0,1.1,1.1,0)"
         d="M 8.7185878,4.0337352 -2.2072895,0.01601326 8.7185884,-4.0017078 c -1.7454984,2.3720609 -1.7354408,5.6174519 -6e-7,8.035443 z"
         style="fill:#555753;fill-rule:evenodd;stroke:#555753;stroke-width:0.625;stroke-linejoin:round"
         id="path5173"
         inkscape:connector-curvature="0" />
    </marker>
    <marker
       style="overflow:visible"
       id="Arrow2LendQ"
       refX="0"
       refY="0"
       orient="auto"
       inkscape:stockid="Arrow2LendQ">
      <path
         transform="matrix(-1.1,0,0,-1.1,-1.1,0)"
         d="M 8.7185878,4.0337352 -2.2072895,0.01601326 8.7185884,-4.0017078 c -1.7454984,2.3720609 -1.7354408,5.6174519 -6e-7,8.035443 z"
         style="fill:#555753;fill-rule:evenodd;stroke:#555753;stroke-width:0.625;stroke-linejoin:round"
         id="path5176"
         inkscape:connector-curvature="0" />
    </marker>
    <marker
       style="overflow:visible"
       id="marker3273"
       refX="0"
       refY="0"
       orient="auto"
       inkscape:stockid="Arrow2LstartLU">
      <path
         transform="matrix(1.1,0,0,1.1,1.1,0)"
         d="M 8.7185878,4.0337352 -2.2072895,0.01601326 8.7185884,-4.0017078 c -1.7454984,2.3720609 -1.7354408,5.6174519 -6e-7,8.035443 z"
         style="fill:#555753;fill-rule:evenodd;stroke:#555753;stroke-width:0.625;stroke-linejoin:round"
         id="path3275"
         inkscape:connector-curvature="0" />
    </marker>
    <marker
       style="overflow:visible"
       id="marker3277"
       refX="0"
       refY="0"
       orient="auto"
       inkscape:stockid="Arrow2LendEg">
      <path
         transform="matrix(-1.1,0,0,-1.1,-1.1,0)"
         d="M 8.7185878,4.0337352 -2.2072895,0.01601326 8.7185884,-4.0017078 c -1.7454984,2.3720609 -1.7354408,5.6174519 -6e-7,8.035443 z"
         style="fill:#555753;fill-rule:evenodd;stroke:#555753;stroke-width:0.625;stroke-linejoin:round"
         id="path3279"
         inkscape:connector-curvature="0" />
    </marker>
    <marker
       style="overflow:visible"
       id="marker3281"
       refX="0"
       refY="0"
       orient="auto"
       inkscape:stockid="Arrow2LstartLU">
      <path
         transform="matrix(1.1,0,0,1.1,1.1,0)"
         d="M 8.7185878,4.0337352 -2.2072895,0.01601326 8.7185884,-4.0017078 c -1.7454984,2.3720609 -1.7354408,5.6174519 -6e-7,8.035443 z"
         style="fill:#555753;fill-rule:evenodd;stroke:#555753;stroke-width:0.625;stroke-linejoin:round"
         id="path3283"
         inkscape:connector-curvature="0" />
    </marker>
    <marker
       style="overflow:visible"
       id="marker3285"
       refX="0"
       refY="0"
       orient="auto"
       inkscape:stockid="Arrow2LendEg">
      <path
         transform="matrix(-1.1,0,0,-1.1,-1.1,0)"
         d="M 8.7185878,4.0337352 -2.2072895,0.01601326 8.7185884,-4.0017078 c -1.7454984,2.3720609 -1.7354408,5.6174519 -6e-7,8.035443 z"
         style="fill:#555753;fill-rule:evenodd;stroke:#555753;stroke-width:0.625;stroke-linejoin:round"
         id="path3287"
         inkscape:connector-curvature="0" />
    </marker>
    <marker
       style="overflow:visible"
       id="marker3289"
       refX="0"
       refY="0"
       orient="auto"
       inkscape:stockid="Arrow2LstartLU">
      <path
         transform="matrix(1.1,0,0,1.1,1.1,0)"
         d="M 8.7185878,4.0337352 -2.2072895,0.01601326 8.7185884,-4.0017078 c -1.7454984,2.3720609 -1.7354408,5.6174519 -6e-7,8.035443 z"
         style="fill:#555753;fill-rule:evenodd;stroke:#555753;stroke-width:0.625;stroke-linejoin:round"
         id="path3291"
         inkscape:connector-curvature="0" />
    </marker>
    <marker
       style="overflow:visible"
       id="marker3293"
       refX="0"
       refY="0"
       orient="auto"
       inkscape:stockid="Arrow2LendEg">
      <path
         transform="matrix(-1.1,0,0,-1.1,-1.1,0)"
         d="M 8.7185878,4.0337352 -2.2072895,0.01601326 8.7185884,-4.0017078 c -1.7454984,2.3720609 -1.7354408,5.6174519 -6e-7,8.035443 z"
         style="fill:#555753;fill-rule:evenodd;stroke:#555753;stroke-width:0.625;stroke-linejoin:round"
         id="path3295"
         inkscape:connector-curvature="0" />
    </marker>
    <marker
       style="overflow:visible"
       id="marker3297"
       refX="0"
       refY="0"
       orient="auto"
       inkscape:stockid="Arrow2LstartLU">
      <path
         transform="matrix(1.1,0,0,1.1,1.1,0)"
         d="M 8.7185878,4.0337352 -2.2072895,0.01601326 8.7185884,-4.0017078 c -1.7454984,2.3720609 -1.7354408,5.6174519 -6e-7,8.035443 z"
         style="fill:#555753;fill-rule:evenodd;stroke:#555753;stroke-width:0.625;stroke-linejoin:round"
         id="path3299"
         inkscape:connector-curvature="0" />
    </marker>
    <marker
       style="overflow:visible"
       id="marker3301"
       refX="0"
       refY="0"
       orient="auto"
       inkscape:stockid="Arrow2LendEg">
      <path
         transform="matrix(-1.1,0,0,-1.1,-1.1,0)"
         d="M 8.7185878,4.0337352 -2.2072895,0.01601326 8.7185884,-4.0017078 c -1.7454984,2.3720609 -1.7354408,5.6174519 -6e-7,8.035443 z"
         style="fill:#555753;fill-rule:evenodd;stroke:#555753;stroke-width:0.625;stroke-linejoin:round"
         id="path3303"
         inkscape:connector-curvature="0" />
    </marker>
    <marker
       style="overflow:visible"
       id="marker3305"
       refX="0"
       refY="0"
       orient="auto"
       inkscape:stockid="Arrow2LstartLU">
      <path
         transform="matrix(1.1,0,0,1.1,1.1,0)"
         d="M 8.7185878,4.0337352 -2.2072895,0.01601326 8.7185884,-4.0017078 c -1.7454984,2.3720609 -1.7354408,5.6174519 -6e-7,8.035443 z"
         style="fill:#555753;fill-rule:evenodd;stroke:#555753;stroke-width:0.625;stroke-linejoin:round"
         id="path3307"
         inkscape:connector-curvature="0" />
    </marker>
    <marker
       style="overflow:visible"
       id="marker3309"
       refX="0"
       refY="0"
       orient="auto"
       inkscape:stockid="Arrow2LendEg">
      <path
         transform="matrix(-1.1,0,0,-1.1,-1.1,0)"
         d="M 8.7185878,4.0337352 -2.2072895,0.01601326 8.7185884,-4.0017078 c -1.7454984,2.3720609 -1.7354408,5.6174519 -6e-7,8.035443 z"
         style="fill:#555753;fill-rule:evenodd;stroke:#555753;stroke-width:0.625;stroke-linejoin:round"
         id="path3311"
         inkscape:connector-curvature="0" />
    </marker>
    <marker
       style="overflow:visible"
       id="marker3313"
       refX="0"
       refY="0"
       orient="auto"
       inkscape:stockid="Arrow2LstartLU">
      <path
         transform="matrix(1.1,0,0,1.1,1.1,0)"
         d="M 8.7185878,4.0337352 -2.2072895,0.01601326 8.7185884,-4.0017078 c -1.7454984,2.3720609 -1.7354408,5.6174519 -6e-7,8.035443 z"
         style="fill:#555753;fill-rule:evenodd;stroke:#555753;stroke-width:0.625;stroke-linejoin:round"
         id="path3315"
         inkscape:connector-curvature="0" />
    </marker>
    <marker
       style="overflow:visible"
       id="marker3317"
       refX="0"
       refY="0"
       orient="auto"
       inkscape:stockid="Arrow2LendEg">
      <path
         transform="matrix(-1.1,0,0,-1.1,-1.1,0)"
         d="M 8.7185878,4.0337352 -2.2072895,0.01601326 8.7185884,-4.0017078 c -1.7454984,2.3720609 -1.7354408,5.6174519 -6e-7,8.035443 z"
         style="fill:#555753;fill-rule:evenodd;stroke:#555753;stroke-width:0.625;stroke-linejoin:round"
         id="path3319"
         inkscape:connector-curvature="0" />
    </marker>
    <marker
       style="overflow:visible"
       id="marker3321"
       refX="0"
       refY="0"
       orient="auto"
       inkscape:stockid="Arrow2LstartLU">
      <path
         transform="matrix(1.1,0,0,1.1,1.1,0)"
         d="M 8.7185878,4.0337352 -2.2072895,0.01601326 8.7185884,-4.0017078 c -1.7454984,2.3720609 -1.7354408,5.6174519 -6e-7,8.035443 z"
         style="fill:#555753;fill-rule:evenodd;stroke:#555753;stroke-width:0.625;stroke-linejoin:round"
         id="path3323"
         inkscape:connector-curvature="0" />
    </marker>
    <marker
       style="overflow:visible"
       id="marker3325"
       refX="0"
       refY="0"
       orient="auto"
       inkscape:stockid="Arrow2LendEg">
      <path
         transform="matrix(-1.1,0,0,-1.1,-1.1,0)"
         d="M 8.7185878,4.0337352 -2.2072895,0.01601326 8.7185884,-4.0017078 c -1.7454984,2.3720609 -1.7354408,5.6174519 -6e-7,8.035443 z"
         style="fill:#555753;fill-rule:evenodd;stroke:#555753;stroke-width:0.625;stroke-linejoin:round"
         id="path3327"
         inkscape:connector-curvature="0" />
    </marker>
    <marker
       style="overflow:visible"
       id="marker3329"
       refX="0"
       refY="0"
       orient="auto"
       inkscape:stockid="Arrow2LstartLU">
      <path
         transform="matrix(1.1,0,0,1.1,1.1,0)"
         d="M 8.7185878,4.0337352 -2.2072895,0.01601326 8.7185884,-4.0017078 c -1.7454984,2.3720609 -1.7354408,5.6174519 -6e-7,8.035443 z"
         style="fill:#555753;fill-rule:evenodd;stroke:#555753;stroke-width:0.625;stroke-linejoin:round"
         id="path3331"
         inkscape:connector-curvature="0" />
    </marker>
    <marker
       style="overflow:visible"
       id="marker3333"
       refX="0"
       refY="0"
       orient="auto"
       inkscape:stockid="Arrow2LendEg">
      <path
         transform="matrix(-1.1,0,0,-1.1,-1.1,0)"
         d="M 8.7185878,4.0337352 -2.2072895,0.01601326 8.7185884,-4.0017078 c -1.7454984,2.3720609 -1.7354408,5.6174519 -6e-7,8.035443 z"
         style="fill:#555753;fill-rule:evenodd;stroke:#555753;stroke-width:0.625;stroke-linejoin:round"
         id="path3335"
         inkscape:connector-curvature="0" />
    </marker>
    <marker
       style="overflow:visible"
       id="Arrow2LstartW"
       refX="0"
       refY="0"
       orient="auto"
       inkscape:stockid="Arrow2LstartW">
      <path
         transform="matrix(1.1,0,0,1.1,1.1,0)"
         d="M 8.7185878,4.0337352 -2.2072895,0.01601326 8.7185884,-4.0017078 c -1.7454984,2.3720609 -1.7354408,5.6174519 -6e-7,8.035443 z"
         style="fill:#555753;fill-rule:evenodd;stroke:#555753;stroke-width:0.625;stroke-linejoin:round"
         id="path5294"
         inkscape:connector-curvature="0" />
    </marker>
    <marker
       style="overflow:visible"
       id="Arrow2LendK"
       refX="0"
       refY="0"
       orient="auto"
       inkscape:stockid="Arrow2LendK">
      <path
         transform="matrix(-1.1,0,0,-1.1,-1.1,0)"
         d="M 8.7185878,4.0337352 -2.2072895,0.01601326 8.7185884,-4.0017078 c -1.7454984,2.3720609 -1.7354408,5.6174519 -6e-7,8.035443 z"
         style="fill:#555753;fill-rule:evenodd;stroke:#555753;stroke-width:0.625;stroke-linejoin:round"
         id="path5297"
         inkscape:connector-curvature="0" />
    </marker>
    <marker
       style="overflow:visible"
       id="marker3341"
       refX="0"
       refY="0"
       orient="auto"
       inkscape:stockid="Arrow2LstartW">
      <path
         transform="matrix(1.1,0,0,1.1,1.1,0)"
         d="M 8.7185878,4.0337352 -2.2072895,0.01601326 8.7185884,-4.0017078 c -1.7454984,2.3720609 -1.7354408,5.6174519 -6e-7,8.035443 z"
         style="fill:#555753;fill-rule:evenodd;stroke:#555753;stroke-width:0.625;stroke-linejoin:round"
         id="path3343"
         inkscape:connector-curvature="0" />
    </marker>
    <marker
       style="overflow:visible"
       id="marker3345"
       refX="0"
       refY="0"
       orient="auto"
       inkscape:stockid="Arrow2LendK">
      <path
         transform="matrix(-1.1,0,0,-1.1,-1.1,0)"
         d="M 8.7185878,4.0337352 -2.2072895,0.01601326 8.7185884,-4.0017078 c -1.7454984,2.3720609 -1.7354408,5.6174519 -6e-7,8.035443 z"
         style="fill:#555753;fill-rule:evenodd;stroke:#555753;stroke-width:0.625;stroke-linejoin:round"
         id="path3347"
         inkscape:connector-curvature="0" />
    </marker>
    <marker
       style="overflow:visible"
       id="marker3349"
       refX="0"
       refY="0"
       orient="auto"
       inkscape:stockid="Arrow2LstartW">
      <path
         transform="matrix(1.1,0,0,1.1,1.1,0)"
         d="M 8.7185878,4.0337352 -2.2072895,0.01601326 8.7185884,-4.0017078 c -1.7454984,2.3720609 -1.7354408,5.6174519 -6e-7,8.035443 z"
         style="fill:#555753;fill-rule:evenodd;stroke:#555753;stroke-width:0.625;stroke-linejoin:round"
         id="path3351"
         inkscape:connector-curvature="0" />
    </marker>
    <marker
       style="overflow:visible"
       id="marker3353"
       refX="0"
       refY="0"
       orient="auto"
       inkscape:stockid="Arrow2LendK">
      <path
         transform="matrix(-1.1,0,0,-1.1,-1.1,0)"
         d="M 8.7185878,4.0337352 -2.2072895,0.01601326 8.7185884,-4.0017078 c -1.7454984,2.3720609 -1.7354408,5.6174519 -6e-7,8.035443 z"
         style="fill:#555753;fill-rule:evenodd;stroke:#555753;stroke-width:0.625;stroke-linejoin:round"
         id="path3355"
         inkscape:connector-curvature="0" />
    </marker>
    <marker
       style="overflow:visible"
       id="marker3357"
       refX="0"
       refY="0"
       orient="auto"
       inkscape:stockid="Arrow2LstartW">
      <path
         transform="matrix(1.1,0,0,1.1,1.1,0)"
         d="M 8.7185878,4.0337352 -2.2072895,0.01601326 8.7185884,-4.0017078 c -1.7454984,2.3720609 -1.7354408,5.6174519 -6e-7,8.035443 z"
         style="fill:#555753;fill-rule:evenodd;stroke:#555753;stroke-width:0.625;stroke-linejoin:round"
         id="path3359"
         inkscape:connector-curvature="0" />
    </marker>
    <marker
       style="overflow:visible"
       id="marker3361"
       refX="0"
       refY="0"
       orient="auto"
       inkscape:stockid="Arrow2LendK">
      <path
         transform="matrix(-1.1,0,0,-1.1,-1.1,0)"
         d="M 8.7185878,4.0337352 -2.2072895,0.01601326 8.7185884,-4.0017078 c -1.7454984,2.3720609 -1.7354408,5.6174519 -6e-7,8.035443 z"
         style="fill:#555753;fill-rule:evenodd;stroke:#555753;stroke-width:0.625;stroke-linejoin:round"
         id="path3363"
         inkscape:connector-curvature="0" />
    </marker>
    <marker
       style="overflow:visible"
       id="marker3365"
       refX="0"
       refY="0"
       orient="auto"
       inkscape:stockid="Arrow2LstartW">
      <path
         transform="matrix(1.1,0,0,1.1,1.1,0)"
         d="M 8.7185878,4.0337352 -2.2072895,0.01601326 8.7185884,-4.0017078 c -1.7454984,2.3720609 -1.7354408,5.6174519 -6e-7,8.035443 z"
         style="fill:#555753;fill-rule:evenodd;stroke:#555753;stroke-width:0.625;stroke-linejoin:round"
         id="path3367"
         inkscape:connector-curvature="0" />
    </marker>
    <marker
       style="overflow:visible"
       id="marker3369"
       refX="0"
       refY="0"
       orient="auto"
       inkscape:stockid="Arrow2LendK">
      <path
         transform="matrix(-1.1,0,0,-1.1,-1.1,0)"
         d="M 8.7185878,4.0337352 -2.2072895,0.01601326 8.7185884,-4.0017078 c -1.7454984,2.3720609 -1.7354408,5.6174519 -6e-7,8.035443 z"
         style="fill:#555753;fill-rule:evenodd;stroke:#555753;stroke-width:0.625;stroke-linejoin:round"
         id="path3371"
         inkscape:connector-curvature="0" />
    </marker>
    <marker
       style="overflow:visible"
       id="Arrow2LstartT"
       refX="0"
       refY="0"
       orient="auto"
       inkscape:stockid="Arrow2LstartT">
      <path
         transform="matrix(1.1,0,0,1.1,1.1,0)"
         d="M 8.7185878,4.0337352 -2.2072895,0.01601326 8.7185884,-4.0017078 c -1.7454984,2.3720609 -1.7354408,5.6174519 -6e-7,8.035443 z"
         style="fill:#555753;fill-rule:evenodd;stroke:#555753;stroke-width:0.625;stroke-linejoin:round"
         id="path5288"
         inkscape:connector-curvature="0" />
    </marker>
    <marker
       style="overflow:visible"
       id="Arrow2Lendj"
       refX="0"
       refY="0"
       orient="auto"
       inkscape:stockid="Arrow2Lendj">
      <path
         transform="matrix(-1.1,0,0,-1.1,-1.1,0)"
         d="M 8.7185878,4.0337352 -2.2072895,0.01601326 8.7185884,-4.0017078 c -1.7454984,2.3720609 -1.7354408,5.6174519 -6e-7,8.035443 z"
         style="fill:#555753;fill-rule:evenodd;stroke:#555753;stroke-width:0.625;stroke-linejoin:round"
         id="path5291"
         inkscape:connector-curvature="0" />
    </marker>
    <marker
       style="overflow:visible"
       id="Arrow2LstartJ"
       refX="0"
       refY="0"
       orient="auto"
       inkscape:stockid="Arrow2LstartJ">
      <path
         transform="matrix(1.1,0,0,1.1,1.1,0)"
         d="M 8.7185878,4.0337352 -2.2072895,0.01601326 8.7185884,-4.0017078 c -1.7454984,2.3720609 -1.7354408,5.6174519 -6e-7,8.035443 z"
         style="fill:#555753;fill-rule:evenodd;stroke:#555753;stroke-width:0.625;stroke-linejoin:round"
         id="path5300"
         inkscape:connector-curvature="0" />
    </marker>
    <marker
       style="overflow:visible"
       id="Arrow2LendJ"
       refX="0"
       refY="0"
       orient="auto"
       inkscape:stockid="Arrow2LendJ">
      <path
         transform="matrix(-1.1,0,0,-1.1,-1.1,0)"
         d="M 8.7185878,4.0337352 -2.2072895,0.01601326 8.7185884,-4.0017078 c -1.7454984,2.3720609 -1.7354408,5.6174519 -6e-7,8.035443 z"
         style="fill:#555753;fill-rule:evenodd;stroke:#555753;stroke-width:0.625;stroke-linejoin:round"
         id="path5303"
         inkscape:connector-curvature="0" />
    </marker>
    <marker
       style="overflow:visible"
       id="marker3381"
       refX="0"
       refY="0"
       orient="auto"
       inkscape:stockid="Arrow2LstartH">
      <path
         transform="matrix(1.1,0,0,1.1,1.1,0)"
         d="M 8.7185878,4.0337352 -2.2072895,0.01601326 8.7185884,-4.0017078 c -1.7454984,2.3720609 -1.7354408,5.6174519 -6e-7,8.035443 z"
         style="fill:#555753;fill-rule:evenodd;stroke:#555753;stroke-width:0.625;stroke-linejoin:round"
         id="path3383"
         inkscape:connector-curvature="0" />
    </marker>
    <marker
       style="overflow:visible"
       id="marker3385"
       refX="0"
       refY="0"
       orient="auto"
       inkscape:stockid="Arrow2LendQ">
      <path
         transform="matrix(-1.1,0,0,-1.1,-1.1,0)"
         d="M 8.7185878,4.0337352 -2.2072895,0.01601326 8.7185884,-4.0017078 c -1.7454984,2.3720609 -1.7354408,5.6174519 -6e-7,8.035443 z"
         style="fill:#555753;fill-rule:evenodd;stroke:#555753;stroke-width:0.625;stroke-linejoin:round"
         id="path3387"
         inkscape:connector-curvature="0" />
    </marker>
    <marker
       style="overflow:visible"
       id="Arrow2MendjU"
       refX="0"
       refY="0"
       orient="auto"
       inkscape:stockid="Arrow2MendjU">
      <path
         transform="scale(-0.6,-0.6)"
         d="M 8.7185878,4.0337352 -2.2072895,0.01601326 8.7185884,-4.0017078 c -1.7454984,2.3720609 -1.7354408,5.6174519 -6e-7,8.035443 z"
         style="fill:#c4a000;fill-rule:evenodd;stroke:#c4a000;stroke-width:0.625;stroke-linejoin:round"
         id="path4363"
         inkscape:connector-curvature="0" />
    </marker>
  </defs>
  <metadata
     id="metadata3248">
    <rdf:RDF>
      <cc:Work
         rdf:about="">
        <dc:format>image/svg+xml</dc:format>
        <dc:type
           rdf:resource="http://purl.org/dc/dcmitype/StillImage" />
        <dc:title></dc:title>
      </cc:Work>
    </rdf:RDF>
  </metadata>
  <g
     transform="translate(-199.90482,-547.03068)"
     id="layer1"
     inkscape:groupmode="layer"
     inkscape:label="Layer 1">
    <path
       style="fill:#babdb6;stroke:#888a85;stroke-width:5;stroke-linecap:butt;stroke-linejoin:miter;stroke-miterlimit:4;stroke-opacity:1;stroke-dasharray:none"
       d="m 341.17947,599.53336 c -0.9347,-0.057 -1.6824,0.8062 -2.2082,1.6122 -1.0515,1.6124 -1.7524,0.5642 -4.0892,0.5642 -2.3367,0 -2.9443,1.8484 -2.1264,4.9578 0.8178,3.1093 7.606,5.5392 10.8774,10.7212 0.9241,1.464 1.5528,2.6754 2.0037,3.8694 -23.3982,-2.7956 -55.59404,-2.3344 -73.48404,19.2662 -26.437,31.9207 -19.8251,63.2049 -16.5205,82.7478 3.3046,19.5433 35.6931,112.69516 64.77394,112.69516 24.4542,-0.6515 24.4633,-5.8715 35.6991,-7.1745 11.2358,-1.3029 33.7095,18.8932 60.8073,-20.19326 27.0978,-39.0863 30.3832,-86.6353 30.3832,-104.8757 0,-18.2403 -14.859,-71.9839 -45.9224,-76.2181 -10.1346,-1.3815 -13.8977,1.2819 -30.7512,-1.9751 -3.7074,-0.7165 -10.3418,-2.1791 -18.5652,-3.426 -1.2653,-3.1723 -2.5743,-6.2057 -3.6395,-8.1821 -1.9862,-3.685 -1.513,-5.0727 -3.9664,-10.6005 -1.2269,-2.7639 -2.3368,-3.7309 -3.2716,-3.7887 z"
       id="path3932"
       inkscape:connector-curvature="0" />
  </g>
</svg>
