<?xml version="1.0" encoding="UTF-8" standalone="no"?>
<!-- Created with Inkscape (http://www.inkscape.org/) -->

<svg
   xmlns:dc="http://purl.org/dc/elements/1.1/"
   xmlns:cc="http://creativecommons.org/ns#"
   xmlns:rdf="http://www.w3.org/1999/02/22-rdf-syntax-ns#"
   xmlns:svg="http://www.w3.org/2000/svg"
   xmlns="http://www.w3.org/2000/svg"
   xmlns:sodipodi="http://sodipodi.sourceforge.net/DTD/sodipodi-0.dtd"
   xmlns:inkscape="http://www.inkscape.org/namespaces/inkscape"
   width="295.78491"
   height="373.39545"
   id="svg3243"
   version="1.1"
   inkscape:version="0.48.3.1 r9886"
   sodipodi:docname="pear.svg"
   inkscape:export-filename="/sk-home/bastiaan/Develop/dissertation/lekenpraatje/img/pear.png"
   inkscape:export-xdpi="200"
   inkscape:export-ydpi="200">
  <sodipodi:namedview
     id="base"
     pagecolor="#ffffff"
     bordercolor="#666666"
     borderopacity="1.0"
     inkscape:pageopacity="0.0"
     inkscape:pageshadow="2"
     inkscape:zoom="0.49497475"
     inkscape:cx="800.60632"
     inkscape:cy="-302.10889"
     inkscape:document-units="px"
     inkscape:current-layer="layer1"
     showgrid="false"
     inkscape:window-width="1847"
     inkscape:window-height="1141"
     inkscape:window-x="73"
     inkscape:window-y="27"
     inkscape:window-maximized="1"
     fit-margin-top="50"
     fit-margin-left="50"
     fit-margin-right="50"
     fit-margin-bottom="50" />
  <defs
     id="defs3245">
    <marker
       style="overflow:visible"
       id="Arrow2Mendv"
       refX="0"
       refY="0"
       orient="auto"
       inkscape:stockid="Arrow2Mendv">
      <path
         transform="scale(-0.6,-0.6)"
         d="M 8.7185878,4.0337352 -2.2072895,0.01601326 8.7185884,-4.0017078 c -1.7454984,2.3720609 -1.7354408,5.6174519 -6e-7,8.035443 z"
         style="fill:#888a85;fill-rule:evenodd;stroke:#888a85;stroke-width:0.625;stroke-linejoin:round"
         id="path8324"
         inkscape:connector-curvature="0" />
    </marker>
    <marker
       style="overflow:visible"
       id="Arrow2Mendj"
       refX="0"
       refY="0"
       orient="auto"
       inkscape:stockid="Arrow2Mendj">
      <path
         transform="scale(-0.6,-0.6)"
         d="M 8.7185878,4.0337352 -2.2072895,0.01601326 8.7185884,-4.0017078 c -1.7454984,2.3720609 -1.7354408,5.6174519 -6e-7,8.035443 z"
         style="fill:#204a87;fill-rule:evenodd;stroke:#204a87;stroke-width:0.625;stroke-linejoin:round"
         id="path7641"
         inkscape:connector-curvature="0" />
    </marker>
    <marker
       style="overflow:visible"
       id="Arrow2LstartLU"
       refX="0"
       refY="0"
       orient="auto"
       inkscape:stockid="Arrow2LstartLU">
      <path
         transform="matrix(1.1,0,0,1.1,1.1,0)"
         d="M 8.7185878,4.0337352 -2.2072895,0.01601326 8.7185884,-4.0017078 c -1.7454984,2.3720609 -1.7354408,5.6174519 -6e-7,8.035443 z"
         style="fill:#555753;fill-rule:evenodd;stroke:#555753;stroke-width:0.625;stroke-linejoin:round"
         id="path6018"
         inkscape:connector-curvature="0" />
    </marker>
    <marker
       style="overflow:visible"
       id="Arrow2LendEg"
       refX="0"
       refY="0"
       orient="auto"
       inkscape:stockid="Arrow2LendEg">
      <path
         transform="matrix(-1.1,0,0,-1.1,-1.1,0)"
         d="M 8.7185878,4.0337352 -2.2072895,0.01601326 8.7185884,-4.0017078 c -1.7454984,2.3720609 -1.7354408,5.6174519 -6e-7,8.035443 z"
         style="fill:#555753;fill-rule:evenodd;stroke:#555753;stroke-width:0.625;stroke-linejoin:round"
         id="path6021"
         inkscape:connector-curvature="0" />
    </marker>
    <marker
       style="overflow:visible"
       id="Arrow2LstartH"
       refX="0"
       refY="0"
       orient="auto"
       inkscape:stockid="Arrow2LstartH">
      <path
         transform="matrix(1.1,0,0,1.1,1.1,0)"
         d="M 8.7185878,4.0337352 -2.2072895,0.01601326 8.7185884,-4.0017078 c -1.7454984,2.3720609 -1.7354408,5.6174519 -6e-7,8.035443 z"
         style="fill:#555753;fill-rule:evenodd;stroke:#555753;stroke-width:0.625;stroke-linejoin:round"
         id="path5173"
         inkscape:connector-curvature="0" />
    </marker>
    <marker
       style="overflow:visible"
       id="Arrow2LendQ"
       refX="0"
       refY="0"
       orient="auto"
       inkscape:stockid="Arrow2LendQ">
      <path
         transform="matrix(-1.1,0,0,-1.1,-1.1,0)"
         d="M 8.7185878,4.0337352 -2.2072895,0.01601326 8.7185884,-4.0017078 c -1.7454984,2.3720609 -1.7354408,5.6174519 -6e-7,8.035443 z"
         style="fill:#555753;fill-rule:evenodd;stroke:#555753;stroke-width:0.625;stroke-linejoin:round"
         id="path5176"
         inkscape:connector-curvature="0" />
    </marker>
    <marker
       style="overflow:visible"
       id="marker3273"
       refX="0"
       refY="0"
       orient="auto"
       inkscape:stockid="Arrow2LstartLU">
      <path
         transform="matrix(1.1,0,0,1.1,1.1,0)"
         d="M 8.7185878,4.0337352 -2.2072895,0.01601326 8.7185884,-4.0017078 c -1.7454984,2.3720609 -1.7354408,5.6174519 -6e-7,8.035443 z"
         style="fill:#555753;fill-rule:evenodd;stroke:#555753;stroke-width:0.625;stroke-linejoin:round"
         id="path3275"
         inkscape:connector-curvature="0" />
    </marker>
    <marker
       style="overflow:visible"
       id="marker3277"
       refX="0"
       refY="0"
       orient="auto"
       inkscape:stockid="Arrow2LendEg">
      <path
         transform="matrix(-1.1,0,0,-1.1,-1.1,0)"
         d="M 8.7185878,4.0337352 -2.2072895,0.01601326 8.7185884,-4.0017078 c -1.7454984,2.3720609 -1.7354408,5.6174519 -6e-7,8.035443 z"
         style="fill:#555753;fill-rule:evenodd;stroke:#555753;stroke-width:0.625;stroke-linejoin:round"
         id="path3279"
         inkscape:connector-curvature="0" />
    </marker>
    <marker
       style="overflow:visible"
       id="marker3281"
       refX="0"
       refY="0"
       orient="auto"
       inkscape:stockid="Arrow2LstartLU">
      <path
         transform="matrix(1.1,0,0,1.1,1.1,0)"
         d="M 8.7185878,4.0337352 -2.2072895,0.01601326 8.7185884,-4.0017078 c -1.7454984,2.3720609 -1.7354408,5.6174519 -6e-7,8.035443 z"
         style="fill:#555753;fill-rule:evenodd;stroke:#555753;stroke-width:0.625;stroke-linejoin:round"
         id="path3283"
         inkscape:connector-curvature="0" />
    </marker>
    <marker
       style="overflow:visible"
       id="marker3285"
       refX="0"
       refY="0"
       orient="auto"
       inkscape:stockid="Arrow2LendEg">
      <path
         transform="matrix(-1.1,0,0,-1.1,-1.1,0)"
         d="M 8.7185878,4.0337352 -2.2072895,0.01601326 8.7185884,-4.0017078 c -1.7454984,2.3720609 -1.7354408,5.6174519 -6e-7,8.035443 z"
         style="fill:#555753;fill-rule:evenodd;stroke:#555753;stroke-width:0.625;stroke-linejoin:round"
         id="path3287"
         inkscape:connector-curvature="0" />
    </marker>
    <marker
       style="overflow:visible"
       id="marker3289"
       refX="0"
       refY="0"
       orient="auto"
       inkscape:stockid="Arrow2LstartLU">
      <path
         transform="matrix(1.1,0,0,1.1,1.1,0)"
         d="M 8.7185878,4.0337352 -2.2072895,0.01601326 8.7185884,-4.0017078 c -1.7454984,2.3720609 -1.7354408,5.6174519 -6e-7,8.035443 z"
         style="fill:#555753;fill-rule:evenodd;stroke:#555753;stroke-width:0.625;stroke-linejoin:round"
         id="path3291"
         inkscape:connector-curvature="0" />
    </marker>
    <marker
       style="overflow:visible"
       id="marker3293"
       refX="0"
       refY="0"
       orient="auto"
       inkscape:stockid="Arrow2LendEg">
      <path
         transform="matrix(-1.1,0,0,-1.1,-1.1,0)"
         d="M 8.7185878,4.0337352 -2.2072895,0.01601326 8.7185884,-4.0017078 c -1.7454984,2.3720609 -1.7354408,5.6174519 -6e-7,8.035443 z"
         style="fill:#555753;fill-rule:evenodd;stroke:#555753;stroke-width:0.625;stroke-linejoin:round"
         id="path3295"
         inkscape:connector-curvature="0" />
    </marker>
    <marker
       style="overflow:visible"
       id="marker3297"
       refX="0"
       refY="0"
       orient="auto"
       inkscape:stockid="Arrow2LstartLU">
      <path
         transform="matrix(1.1,0,0,1.1,1.1,0)"
         d="M 8.7185878,4.0337352 -2.2072895,0.01601326 8.7185884,-4.0017078 c -1.7454984,2.3720609 -1.7354408,5.6174519 -6e-7,8.035443 z"
         style="fill:#555753;fill-rule:evenodd;stroke:#555753;stroke-width:0.625;stroke-linejoin:round"
         id="path3299"
         inkscape:connector-curvature="0" />
    </marker>
    <marker
       style="overflow:visible"
       id="marker3301"
       refX="0"
       refY="0"
       orient="auto"
       inkscape:stockid="Arrow2LendEg">
      <path
         transform="matrix(-1.1,0,0,-1.1,-1.1,0)"
         d="M 8.7185878,4.0337352 -2.2072895,0.01601326 8.7185884,-4.0017078 c -1.7454984,2.3720609 -1.7354408,5.6174519 -6e-7,8.035443 z"
         style="fill:#555753;fill-rule:evenodd;stroke:#555753;stroke-width:0.625;stroke-linejoin:round"
         id="path3303"
         inkscape:connector-curvature="0" />
    </marker>
    <marker
       style="overflow:visible"
       id="marker3305"
       refX="0"
       refY="0"
       orient="auto"
       inkscape:stockid="Arrow2LstartLU">
      <path
         transform="matrix(1.1,0,0,1.1,1.1,0)"
         d="M 8.7185878,4.0337352 -2.2072895,0.01601326 8.7185884,-4.0017078 c -1.7454984,2.3720609 -1.7354408,5.6174519 -6e-7,8.035443 z"
         style="fill:#555753;fill-rule:evenodd;stroke:#555753;stroke-width:0.625;stroke-linejoin:round"
         id="path3307"
         inkscape:connector-curvature="0" />
    </marker>
    <marker
       style="overflow:visible"
       id="marker3309"
       refX="0"
       refY="0"
       orient="auto"
       inkscape:stockid="Arrow2LendEg">
      <path
         transform="matrix(-1.1,0,0,-1.1,-1.1,0)"
         d="M 8.7185878,4.0337352 -2.2072895,0.01601326 8.7185884,-4.0017078 c -1.7454984,2.3720609 -1.7354408,5.6174519 -6e-7,8.035443 z"
         style="fill:#555753;fill-rule:evenodd;stroke:#555753;stroke-width:0.625;stroke-linejoin:round"
         id="path3311"
         inkscape:connector-curvature="0" />
    </marker>
    <marker
       style="overflow:visible"
       id="marker3313"
       refX="0"
       refY="0"
       orient="auto"
       inkscape:stockid="Arrow2LstartLU">
      <path
         transform="matrix(1.1,0,0,1.1,1.1,0)"
         d="M 8.7185878,4.0337352 -2.2072895,0.01601326 8.7185884,-4.0017078 c -1.7454984,2.3720609 -1.7354408,5.6174519 -6e-7,8.035443 z"
         style="fill:#555753;fill-rule:evenodd;stroke:#555753;stroke-width:0.625;stroke-linejoin:round"
         id="path3315"
         inkscape:connector-curvature="0" />
    </marker>
    <marker
       style="overflow:visible"
       id="marker3317"
       refX="0"
       refY="0"
       orient="auto"
       inkscape:stockid="Arrow2LendEg">
      <path
         transform="matrix(-1.1,0,0,-1.1,-1.1,0)"
         d="M 8.7185878,4.0337352 -2.2072895,0.01601326 8.7185884,-4.0017078 c -1.7454984,2.3720609 -1.7354408,5.6174519 -6e-7,8.035443 z"
         style="fill:#555753;fill-rule:evenodd;stroke:#555753;stroke-width:0.625;stroke-linejoin:round"
         id="path3319"
         inkscape:connector-curvature="0" />
    </marker>
    <marker
       style="overflow:visible"
       id="marker3321"
       refX="0"
       refY="0"
       orient="auto"
       inkscape:stockid="Arrow2LstartLU">
      <path
         transform="matrix(1.1,0,0,1.1,1.1,0)"
         d="M 8.7185878,4.0337352 -2.2072895,0.01601326 8.7185884,-4.0017078 c -1.7454984,2.3720609 -1.7354408,5.6174519 -6e-7,8.035443 z"
         style="fill:#555753;fill-rule:evenodd;stroke:#555753;stroke-width:0.625;stroke-linejoin:round"
         id="path3323"
         inkscape:connector-curvature="0" />
    </marker>
    <marker
       style="overflow:visible"
       id="marker3325"
       refX="0"
       refY="0"
       orient="auto"
       inkscape:stockid="Arrow2LendEg">
      <path
         transform="matrix(-1.1,0,0,-1.1,-1.1,0)"
         d="M 8.7185878,4.0337352 -2.2072895,0.01601326 8.7185884,-4.0017078 c -1.7454984,2.3720609 -1.7354408,5.6174519 -6e-7,8.035443 z"
         style="fill:#555753;fill-rule:evenodd;stroke:#555753;stroke-width:0.625;stroke-linejoin:round"
         id="path3327"
         inkscape:connector-curvature="0" />
    </marker>
    <marker
       style="overflow:visible"
       id="marker3329"
       refX="0"
       refY="0"
       orient="auto"
       inkscape:stockid="Arrow2LstartLU">
      <path
         transform="matrix(1.1,0,0,1.1,1.1,0)"
         d="M 8.7185878,4.0337352 -2.2072895,0.01601326 8.7185884,-4.0017078 c -1.7454984,2.3720609 -1.7354408,5.6174519 -6e-7,8.035443 z"
         style="fill:#555753;fill-rule:evenodd;stroke:#555753;stroke-width:0.625;stroke-linejoin:round"
         id="path3331"
         inkscape:connector-curvature="0" />
    </marker>
    <marker
       style="overflow:visible"
       id="marker3333"
       refX="0"
       refY="0"
       orient="auto"
       inkscape:stockid="Arrow2LendEg">
      <path
         transform="matrix(-1.1,0,0,-1.1,-1.1,0)"
         d="M 8.7185878,4.0337352 -2.2072895,0.01601326 8.7185884,-4.0017078 c -1.7454984,2.3720609 -1.7354408,5.6174519 -6e-7,8.035443 z"
         style="fill:#555753;fill-rule:evenodd;stroke:#555753;stroke-width:0.625;stroke-linejoin:round"
         id="path3335"
         inkscape:connector-curvature="0" />
    </marker>
    <marker
       style="overflow:visible"
       id="Arrow2LstartW"
       refX="0"
       refY="0"
       orient="auto"
       inkscape:stockid="Arrow2LstartW">
      <path
         transform="matrix(1.1,0,0,1.1,1.1,0)"
         d="M 8.7185878,4.0337352 -2.2072895,0.01601326 8.7185884,-4.0017078 c -1.7454984,2.3720609 -1.7354408,5.6174519 -6e-7,8.035443 z"
         style="fill:#555753;fill-rule:evenodd;stroke:#555753;stroke-width:0.625;stroke-linejoin:round"
         id="path5294"
         inkscape:connector-curvature="0" />
    </marker>
    <marker
       style="overflow:visible"
       id="Arrow2LendK"
       refX="0"
       refY="0"
       orient="auto"
       inkscape:stockid="Arrow2LendK">
      <path
         transform="matrix(-1.1,0,0,-1.1,-1.1,0)"
         d="M 8.7185878,4.0337352 -2.2072895,0.01601326 8.7185884,-4.0017078 c -1.7454984,2.3720609 -1.7354408,5.6174519 -6e-7,8.035443 z"
         style="fill:#555753;fill-rule:evenodd;stroke:#555753;stroke-width:0.625;stroke-linejoin:round"
         id="path5297"
         inkscape:connector-curvature="0" />
    </marker>
    <marker
       style="overflow:visible"
       id="marker3341"
       refX="0"
       refY="0"
       orient="auto"
       inkscape:stockid="Arrow2LstartW">
      <path
         transform="matrix(1.1,0,0,1.1,1.1,0)"
         d="M 8.7185878,4.0337352 -2.2072895,0.01601326 8.7185884,-4.0017078 c -1.7454984,2.3720609 -1.7354408,5.6174519 -6e-7,8.035443 z"
         style="fill:#555753;fill-rule:evenodd;stroke:#555753;stroke-width:0.625;stroke-linejoin:round"
         id="path3343"
         inkscape:connector-curvature="0" />
    </marker>
    <marker
       style="overflow:visible"
       id="marker3345"
       refX="0"
       refY="0"
       orient="auto"
       inkscape:stockid="Arrow2LendK">
      <path
         transform="matrix(-1.1,0,0,-1.1,-1.1,0)"
         d="M 8.7185878,4.0337352 -2.2072895,0.01601326 8.7185884,-4.0017078 c -1.7454984,2.3720609 -1.7354408,5.6174519 -6e-7,8.035443 z"
         style="fill:#555753;fill-rule:evenodd;stroke:#555753;stroke-width:0.625;stroke-linejoin:round"
         id="path3347"
         inkscape:connector-curvature="0" />
    </marker>
    <marker
       style="overflow:visible"
       id="marker3349"
       refX="0"
       refY="0"
       orient="auto"
       inkscape:stockid="Arrow2LstartW">
      <path
         transform="matrix(1.1,0,0,1.1,1.1,0)"
         d="M 8.7185878,4.0337352 -2.2072895,0.01601326 8.7185884,-4.0017078 c -1.7454984,2.3720609 -1.7354408,5.6174519 -6e-7,8.035443 z"
         style="fill:#555753;fill-rule:evenodd;stroke:#555753;stroke-width:0.625;stroke-linejoin:round"
         id="path3351"
         inkscape:connector-curvature="0" />
    </marker>
    <marker
       style="overflow:visible"
       id="marker3353"
       refX="0"
       refY="0"
       orient="auto"
       inkscape:stockid="Arrow2LendK">
      <path
         transform="matrix(-1.1,0,0,-1.1,-1.1,0)"
         d="M 8.7185878,4.0337352 -2.2072895,0.01601326 8.7185884,-4.0017078 c -1.7454984,2.3720609 -1.7354408,5.6174519 -6e-7,8.035443 z"
         style="fill:#555753;fill-rule:evenodd;stroke:#555753;stroke-width:0.625;stroke-linejoin:round"
         id="path3355"
         inkscape:connector-curvature="0" />
    </marker>
    <marker
       style="overflow:visible"
       id="marker3357"
       refX="0"
       refY="0"
       orient="auto"
       inkscape:stockid="Arrow2LstartW">
      <path
         transform="matrix(1.1,0,0,1.1,1.1,0)"
         d="M 8.7185878,4.0337352 -2.2072895,0.01601326 8.7185884,-4.0017078 c -1.7454984,2.3720609 -1.7354408,5.6174519 -6e-7,8.035443 z"
         style="fill:#555753;fill-rule:evenodd;stroke:#555753;stroke-width:0.625;stroke-linejoin:round"
         id="path3359"
         inkscape:connector-curvature="0" />
    </marker>
    <marker
       style="overflow:visible"
       id="marker3361"
       refX="0"
       refY="0"
       orient="auto"
       inkscape:stockid="Arrow2LendK">
      <path
         transform="matrix(-1.1,0,0,-1.1,-1.1,0)"
         d="M 8.7185878,4.0337352 -2.2072895,0.01601326 8.7185884,-4.0017078 c -1.7454984,2.3720609 -1.7354408,5.6174519 -6e-7,8.035443 z"
         style="fill:#555753;fill-rule:evenodd;stroke:#555753;stroke-width:0.625;stroke-linejoin:round"
         id="path3363"
         inkscape:connector-curvature="0" />
    </marker>
    <marker
       style="overflow:visible"
       id="marker3365"
       refX="0"
       refY="0"
       orient="auto"
       inkscape:stockid="Arrow2LstartW">
      <path
         transform="matrix(1.1,0,0,1.1,1.1,0)"
         d="M 8.7185878,4.0337352 -2.2072895,0.01601326 8.7185884,-4.0017078 c -1.7454984,2.3720609 -1.7354408,5.6174519 -6e-7,8.035443 z"
         style="fill:#555753;fill-rule:evenodd;stroke:#555753;stroke-width:0.625;stroke-linejoin:round"
         id="path3367"
         inkscape:connector-curvature="0" />
    </marker>
    <marker
       style="overflow:visible"
       id="marker3369"
       refX="0"
       refY="0"
       orient="auto"
       inkscape:stockid="Arrow2LendK">
      <path
         transform="matrix(-1.1,0,0,-1.1,-1.1,0)"
         d="M 8.7185878,4.0337352 -2.2072895,0.01601326 8.7185884,-4.0017078 c -1.7454984,2.3720609 -1.7354408,5.6174519 -6e-7,8.035443 z"
         style="fill:#555753;fill-rule:evenodd;stroke:#555753;stroke-width:0.625;stroke-linejoin:round"
         id="path3371"
         inkscape:connector-curvature="0" />
    </marker>
    <marker
       style="overflow:visible"
       id="Arrow2LstartT"
       refX="0"
       refY="0"
       orient="auto"
       inkscape:stockid="Arrow2LstartT">
      <path
         transform="matrix(1.1,0,0,1.1,1.1,0)"
         d="M 8.7185878,4.0337352 -2.2072895,0.01601326 8.7185884,-4.0017078 c -1.7454984,2.3720609 -1.7354408,5.6174519 -6e-7,8.035443 z"
         style="fill:#555753;fill-rule:evenodd;stroke:#555753;stroke-width:0.625;stroke-linejoin:round"
         id="path5288"
         inkscape:connector-curvature="0" />
    </marker>
    <marker
       style="overflow:visible"
       id="Arrow2Lendj"
       refX="0"
       refY="0"
       orient="auto"
       inkscape:stockid="Arrow2Lendj">
      <path
         transform="matrix(-1.1,0,0,-1.1,-1.1,0)"
         d="M 8.7185878,4.0337352 -2.2072895,0.01601326 8.7185884,-4.0017078 c -1.7454984,2.3720609 -1.7354408,5.6174519 -6e-7,8.035443 z"
         style="fill:#555753;fill-rule:evenodd;stroke:#555753;stroke-width:0.625;stroke-linejoin:round"
         id="path5291"
         inkscape:connector-curvature="0" />
    </marker>
    <marker
       style="overflow:visible"
       id="Arrow2LstartJ"
       refX="0"
       refY="0"
       orient="auto"
       inkscape:stockid="Arrow2LstartJ">
      <path
         transform="matrix(1.1,0,0,1.1,1.1,0)"
         d="M 8.7185878,4.0337352 -2.2072895,0.01601326 8.7185884,-4.0017078 c -1.7454984,2.3720609 -1.7354408,5.6174519 -6e-7,8.035443 z"
         style="fill:#555753;fill-rule:evenodd;stroke:#555753;stroke-width:0.625;stroke-linejoin:round"
         id="path5300"
         inkscape:connector-curvature="0" />
    </marker>
    <marker
       style="overflow:visible"
       id="Arrow2LendJ"
       refX="0"
       refY="0"
       orient="auto"
       inkscape:stockid="Arrow2LendJ">
      <path
         transform="matrix(-1.1,0,0,-1.1,-1.1,0)"
         d="M 8.7185878,4.0337352 -2.2072895,0.01601326 8.7185884,-4.0017078 c -1.7454984,2.3720609 -1.7354408,5.6174519 -6e-7,8.035443 z"
         style="fill:#555753;fill-rule:evenodd;stroke:#555753;stroke-width:0.625;stroke-linejoin:round"
         id="path5303"
         inkscape:connector-curvature="0" />
    </marker>
    <marker
       style="overflow:visible"
       id="marker3381"
       refX="0"
       refY="0"
       orient="auto"
       inkscape:stockid="Arrow2LstartH">
      <path
         transform="matrix(1.1,0,0,1.1,1.1,0)"
         d="M 8.7185878,4.0337352 -2.2072895,0.01601326 8.7185884,-4.0017078 c -1.7454984,2.3720609 -1.7354408,5.6174519 -6e-7,8.035443 z"
         style="fill:#555753;fill-rule:evenodd;stroke:#555753;stroke-width:0.625;stroke-linejoin:round"
         id="path3383"
         inkscape:connector-curvature="0" />
    </marker>
    <marker
       style="overflow:visible"
       id="marker3385"
       refX="0"
       refY="0"
       orient="auto"
       inkscape:stockid="Arrow2LendQ">
      <path
         transform="matrix(-1.1,0,0,-1.1,-1.1,0)"
         d="M 8.7185878,4.0337352 -2.2072895,0.01601326 8.7185884,-4.0017078 c -1.7454984,2.3720609 -1.7354408,5.6174519 -6e-7,8.035443 z"
         style="fill:#555753;fill-rule:evenodd;stroke:#555753;stroke-width:0.625;stroke-linejoin:round"
         id="path3387"
         inkscape:connector-curvature="0" />
    </marker>
    <marker
       style="overflow:visible"
       id="Arrow2MendjU"
       refX="0"
       refY="0"
       orient="auto"
       inkscape:stockid="Arrow2MendjU">
      <path
         transform="scale(-0.6,-0.6)"
         d="M 8.7185878,4.0337352 -2.2072895,0.01601326 8.7185884,-4.0017078 c -1.7454984,2.3720609 -1.7354408,5.6174519 -6e-7,8.035443 z"
         style="fill:#c4a000;fill-rule:evenodd;stroke:#c4a000;stroke-width:0.625;stroke-linejoin:round"
         id="path4363"
         inkscape:connector-curvature="0" />
    </marker>
  </defs>
  <metadata
     id="metadata3248">
    <rdf:RDF>
      <cc:Work
         rdf:about="">
        <dc:format>image/svg+xml</dc:format>
        <dc:type
           rdf:resource="http://purl.org/dc/dcmitype/StillImage" />
        <dc:title></dc:title>
      </cc:Work>
    </rdf:RDF>
  </metadata>
  <g
     transform="translate(577.53141,-184.48402)"
     id="layer1"
     inkscape:groupmode="layer"
     inkscape:label="Layer 1">
    <path
       style="fill:#babdb6;stroke:#888a85;stroke-width:4.99999952;stroke-linecap:butt;stroke-linejoin:miter;stroke-miterlimit:4;stroke-opacity:1;stroke-dasharray:none"
       d="m -459.7162,237.00282 c -0.9603,0.17154 -2.2116,1.46548 -3.0755,1.58884 -1.3822,0.19737 -4.5414,-0.40461 -4.1466,2.55597 0.395,2.96058 2.9569,7.89981 4.7341,14.61046 0.918,3.46669 0.4442,7.08054 -0.2073,9.77485 -4.5363,1.78808 -10.8179,1.76017 -15.93,5.94089 -6.1433,5.02427 -11.715,11.69488 -15.066,23.41818 -3.351,11.72329 -5.5755,39.10202 -7.8095,49.15055 -2.234,10.04853 -16.2072,35.7283 -19.5582,44.6603 -3.3509,8.9321 -10.0455,46.3254 6.1508,73.1214 16.1964,26.7961 49.6992,43.5552 83.2089,43.5552 20.1058,0 51.9295,-7.2587 69.8014,-27.3558 17.8719,-20.0971 27.3676,-40.2062 27.3676,-67.5605 0,-27.35436 -19.5271,-59.72894 -32.9309,-72.56874 -13.404,-12.8398 -22.3349,-29.60735 -24.5689,-32.3986 -2.2339,-2.79126 -9.5099,-18.97163 -15.6534,-31.81143 -6.1435,-12.83981 -22.8829,-18.99143 -29.0264,-19.54969 -3.7539,-0.34112 -10.0241,2.25688 -15.3424,5.07739 -0.5077,-1.67716 -1.0216,-3.27062 -1.3477,-4.24842 -0.7898,-2.36846 -4.7291,-13.42129 -5.3215,-16.57924 -0.2221,-1.18424 -0.7023,-1.48453 -1.2785,-1.38161 z"
       id="path3928"
       inkscape:connector-curvature="0" />
  </g>
</svg>
