<?xml version="1.0" encoding="UTF-8" standalone="no"?>
<!-- Created with Inkscape (http://www.inkscape.org/) -->

<svg
   xmlns:dc="http://purl.org/dc/elements/1.1/"
   xmlns:cc="http://creativecommons.org/ns#"
   xmlns:rdf="http://www.w3.org/1999/02/22-rdf-syntax-ns#"
   xmlns:svg="http://www.w3.org/2000/svg"
   xmlns="http://www.w3.org/2000/svg"
   xmlns:sodipodi="http://sodipodi.sourceforge.net/DTD/sodipodi-0.dtd"
   xmlns:inkscape="http://www.inkscape.org/namespaces/inkscape"
   width="726.05499"
   height="755.20447"
   id="svg3243"
   version="1.1"
   inkscape:version="0.48.4 r9939"
   sodipodi:docname="stap6.svg"
   inkscape:export-filename="/home/bastiaan/Phd/dissertation/lekenpraatje/img/stap6.png"
   inkscape:export-xdpi="200"
   inkscape:export-ydpi="200">
  <sodipodi:namedview
     id="base"
     pagecolor="#ffffff"
     bordercolor="#666666"
     borderopacity="1.0"
     inkscape:pageopacity="0.0"
     inkscape:pageshadow="2"
     inkscape:zoom="0.49497475"
     inkscape:cx="112.27605"
     inkscape:cy="365.0649"
     inkscape:document-units="px"
     inkscape:current-layer="layer1"
     showgrid="false"
     inkscape:window-width="1855"
     inkscape:window-height="1056"
     inkscape:window-x="65"
     inkscape:window-y="24"
     inkscape:window-maximized="1"
     fit-margin-top="50"
     fit-margin-left="50"
     fit-margin-right="50"
     fit-margin-bottom="50" />
  <defs
     id="defs3245">
    <marker
       style="overflow:visible"
       id="Arrow2Mendv"
       refX="0"
       refY="0"
       orient="auto"
       inkscape:stockid="Arrow2Mendv">
      <path
         transform="scale(-0.6,-0.6)"
         d="M 8.7185878,4.0337352 -2.2072895,0.01601326 8.7185884,-4.0017078 c -1.7454984,2.3720609 -1.7354408,5.6174519 -6e-7,8.035443 z"
         style="fill:#888a85;fill-rule:evenodd;stroke:#888a85;stroke-width:0.625;stroke-linejoin:round"
         id="path8324"
         inkscape:connector-curvature="0" />
    </marker>
    <marker
       style="overflow:visible"
       id="Arrow2Mendj"
       refX="0"
       refY="0"
       orient="auto"
       inkscape:stockid="Arrow2Mendj">
      <path
         transform="scale(-0.6,-0.6)"
         d="M 8.7185878,4.0337352 -2.2072895,0.01601326 8.7185884,-4.0017078 c -1.7454984,2.3720609 -1.7354408,5.6174519 -6e-7,8.035443 z"
         style="fill:#204a87;fill-rule:evenodd;stroke:#204a87;stroke-width:0.625;stroke-linejoin:round"
         id="path7641"
         inkscape:connector-curvature="0" />
    </marker>
    <marker
       style="overflow:visible"
       id="Arrow2LstartLU"
       refX="0"
       refY="0"
       orient="auto"
       inkscape:stockid="Arrow2LstartLU">
      <path
         transform="matrix(1.1,0,0,1.1,1.1,0)"
         d="M 8.7185878,4.0337352 -2.2072895,0.01601326 8.7185884,-4.0017078 c -1.7454984,2.3720609 -1.7354408,5.6174519 -6e-7,8.035443 z"
         style="fill:#555753;fill-rule:evenodd;stroke:#555753;stroke-width:0.625;stroke-linejoin:round"
         id="path6018"
         inkscape:connector-curvature="0" />
    </marker>
    <marker
       style="overflow:visible"
       id="Arrow2LendEg"
       refX="0"
       refY="0"
       orient="auto"
       inkscape:stockid="Arrow2LendEg">
      <path
         transform="matrix(-1.1,0,0,-1.1,-1.1,0)"
         d="M 8.7185878,4.0337352 -2.2072895,0.01601326 8.7185884,-4.0017078 c -1.7454984,2.3720609 -1.7354408,5.6174519 -6e-7,8.035443 z"
         style="fill:#555753;fill-rule:evenodd;stroke:#555753;stroke-width:0.625;stroke-linejoin:round"
         id="path6021"
         inkscape:connector-curvature="0" />
    </marker>
    <marker
       style="overflow:visible"
       id="Arrow2LstartH"
       refX="0"
       refY="0"
       orient="auto"
       inkscape:stockid="Arrow2LstartH">
      <path
         transform="matrix(1.1,0,0,1.1,1.1,0)"
         d="M 8.7185878,4.0337352 -2.2072895,0.01601326 8.7185884,-4.0017078 c -1.7454984,2.3720609 -1.7354408,5.6174519 -6e-7,8.035443 z"
         style="fill:#555753;fill-rule:evenodd;stroke:#555753;stroke-width:0.625;stroke-linejoin:round"
         id="path5173"
         inkscape:connector-curvature="0" />
    </marker>
    <marker
       style="overflow:visible"
       id="Arrow2LendQ"
       refX="0"
       refY="0"
       orient="auto"
       inkscape:stockid="Arrow2LendQ">
      <path
         transform="matrix(-1.1,0,0,-1.1,-1.1,0)"
         d="M 8.7185878,4.0337352 -2.2072895,0.01601326 8.7185884,-4.0017078 c -1.7454984,2.3720609 -1.7354408,5.6174519 -6e-7,8.035443 z"
         style="fill:#555753;fill-rule:evenodd;stroke:#555753;stroke-width:0.625;stroke-linejoin:round"
         id="path5176"
         inkscape:connector-curvature="0" />
    </marker>
    <marker
       style="overflow:visible"
       id="marker3273"
       refX="0"
       refY="0"
       orient="auto"
       inkscape:stockid="Arrow2LstartLU">
      <path
         transform="matrix(1.1,0,0,1.1,1.1,0)"
         d="M 8.7185878,4.0337352 -2.2072895,0.01601326 8.7185884,-4.0017078 c -1.7454984,2.3720609 -1.7354408,5.6174519 -6e-7,8.035443 z"
         style="fill:#555753;fill-rule:evenodd;stroke:#555753;stroke-width:0.625;stroke-linejoin:round"
         id="path3275"
         inkscape:connector-curvature="0" />
    </marker>
    <marker
       style="overflow:visible"
       id="marker3277"
       refX="0"
       refY="0"
       orient="auto"
       inkscape:stockid="Arrow2LendEg">
      <path
         transform="matrix(-1.1,0,0,-1.1,-1.1,0)"
         d="M 8.7185878,4.0337352 -2.2072895,0.01601326 8.7185884,-4.0017078 c -1.7454984,2.3720609 -1.7354408,5.6174519 -6e-7,8.035443 z"
         style="fill:#555753;fill-rule:evenodd;stroke:#555753;stroke-width:0.625;stroke-linejoin:round"
         id="path3279"
         inkscape:connector-curvature="0" />
    </marker>
    <marker
       style="overflow:visible"
       id="marker3281"
       refX="0"
       refY="0"
       orient="auto"
       inkscape:stockid="Arrow2LstartLU">
      <path
         transform="matrix(1.1,0,0,1.1,1.1,0)"
         d="M 8.7185878,4.0337352 -2.2072895,0.01601326 8.7185884,-4.0017078 c -1.7454984,2.3720609 -1.7354408,5.6174519 -6e-7,8.035443 z"
         style="fill:#555753;fill-rule:evenodd;stroke:#555753;stroke-width:0.625;stroke-linejoin:round"
         id="path3283"
         inkscape:connector-curvature="0" />
    </marker>
    <marker
       style="overflow:visible"
       id="marker3285"
       refX="0"
       refY="0"
       orient="auto"
       inkscape:stockid="Arrow2LendEg">
      <path
         transform="matrix(-1.1,0,0,-1.1,-1.1,0)"
         d="M 8.7185878,4.0337352 -2.2072895,0.01601326 8.7185884,-4.0017078 c -1.7454984,2.3720609 -1.7354408,5.6174519 -6e-7,8.035443 z"
         style="fill:#555753;fill-rule:evenodd;stroke:#555753;stroke-width:0.625;stroke-linejoin:round"
         id="path3287"
         inkscape:connector-curvature="0" />
    </marker>
    <marker
       style="overflow:visible"
       id="marker3289"
       refX="0"
       refY="0"
       orient="auto"
       inkscape:stockid="Arrow2LstartLU">
      <path
         transform="matrix(1.1,0,0,1.1,1.1,0)"
         d="M 8.7185878,4.0337352 -2.2072895,0.01601326 8.7185884,-4.0017078 c -1.7454984,2.3720609 -1.7354408,5.6174519 -6e-7,8.035443 z"
         style="fill:#555753;fill-rule:evenodd;stroke:#555753;stroke-width:0.625;stroke-linejoin:round"
         id="path3291"
         inkscape:connector-curvature="0" />
    </marker>
    <marker
       style="overflow:visible"
       id="marker3293"
       refX="0"
       refY="0"
       orient="auto"
       inkscape:stockid="Arrow2LendEg">
      <path
         transform="matrix(-1.1,0,0,-1.1,-1.1,0)"
         d="M 8.7185878,4.0337352 -2.2072895,0.01601326 8.7185884,-4.0017078 c -1.7454984,2.3720609 -1.7354408,5.6174519 -6e-7,8.035443 z"
         style="fill:#555753;fill-rule:evenodd;stroke:#555753;stroke-width:0.625;stroke-linejoin:round"
         id="path3295"
         inkscape:connector-curvature="0" />
    </marker>
    <marker
       style="overflow:visible"
       id="marker3297"
       refX="0"
       refY="0"
       orient="auto"
       inkscape:stockid="Arrow2LstartLU">
      <path
         transform="matrix(1.1,0,0,1.1,1.1,0)"
         d="M 8.7185878,4.0337352 -2.2072895,0.01601326 8.7185884,-4.0017078 c -1.7454984,2.3720609 -1.7354408,5.6174519 -6e-7,8.035443 z"
         style="fill:#555753;fill-rule:evenodd;stroke:#555753;stroke-width:0.625;stroke-linejoin:round"
         id="path3299"
         inkscape:connector-curvature="0" />
    </marker>
    <marker
       style="overflow:visible"
       id="marker3301"
       refX="0"
       refY="0"
       orient="auto"
       inkscape:stockid="Arrow2LendEg">
      <path
         transform="matrix(-1.1,0,0,-1.1,-1.1,0)"
         d="M 8.7185878,4.0337352 -2.2072895,0.01601326 8.7185884,-4.0017078 c -1.7454984,2.3720609 -1.7354408,5.6174519 -6e-7,8.035443 z"
         style="fill:#555753;fill-rule:evenodd;stroke:#555753;stroke-width:0.625;stroke-linejoin:round"
         id="path3303"
         inkscape:connector-curvature="0" />
    </marker>
    <marker
       style="overflow:visible"
       id="marker3305"
       refX="0"
       refY="0"
       orient="auto"
       inkscape:stockid="Arrow2LstartLU">
      <path
         transform="matrix(1.1,0,0,1.1,1.1,0)"
         d="M 8.7185878,4.0337352 -2.2072895,0.01601326 8.7185884,-4.0017078 c -1.7454984,2.3720609 -1.7354408,5.6174519 -6e-7,8.035443 z"
         style="fill:#555753;fill-rule:evenodd;stroke:#555753;stroke-width:0.625;stroke-linejoin:round"
         id="path3307"
         inkscape:connector-curvature="0" />
    </marker>
    <marker
       style="overflow:visible"
       id="marker3309"
       refX="0"
       refY="0"
       orient="auto"
       inkscape:stockid="Arrow2LendEg">
      <path
         transform="matrix(-1.1,0,0,-1.1,-1.1,0)"
         d="M 8.7185878,4.0337352 -2.2072895,0.01601326 8.7185884,-4.0017078 c -1.7454984,2.3720609 -1.7354408,5.6174519 -6e-7,8.035443 z"
         style="fill:#555753;fill-rule:evenodd;stroke:#555753;stroke-width:0.625;stroke-linejoin:round"
         id="path3311"
         inkscape:connector-curvature="0" />
    </marker>
    <marker
       style="overflow:visible"
       id="marker3313"
       refX="0"
       refY="0"
       orient="auto"
       inkscape:stockid="Arrow2LstartLU">
      <path
         transform="matrix(1.1,0,0,1.1,1.1,0)"
         d="M 8.7185878,4.0337352 -2.2072895,0.01601326 8.7185884,-4.0017078 c -1.7454984,2.3720609 -1.7354408,5.6174519 -6e-7,8.035443 z"
         style="fill:#555753;fill-rule:evenodd;stroke:#555753;stroke-width:0.625;stroke-linejoin:round"
         id="path3315"
         inkscape:connector-curvature="0" />
    </marker>
    <marker
       style="overflow:visible"
       id="marker3317"
       refX="0"
       refY="0"
       orient="auto"
       inkscape:stockid="Arrow2LendEg">
      <path
         transform="matrix(-1.1,0,0,-1.1,-1.1,0)"
         d="M 8.7185878,4.0337352 -2.2072895,0.01601326 8.7185884,-4.0017078 c -1.7454984,2.3720609 -1.7354408,5.6174519 -6e-7,8.035443 z"
         style="fill:#555753;fill-rule:evenodd;stroke:#555753;stroke-width:0.625;stroke-linejoin:round"
         id="path3319"
         inkscape:connector-curvature="0" />
    </marker>
    <marker
       style="overflow:visible"
       id="marker3321"
       refX="0"
       refY="0"
       orient="auto"
       inkscape:stockid="Arrow2LstartLU">
      <path
         transform="matrix(1.1,0,0,1.1,1.1,0)"
         d="M 8.7185878,4.0337352 -2.2072895,0.01601326 8.7185884,-4.0017078 c -1.7454984,2.3720609 -1.7354408,5.6174519 -6e-7,8.035443 z"
         style="fill:#555753;fill-rule:evenodd;stroke:#555753;stroke-width:0.625;stroke-linejoin:round"
         id="path3323"
         inkscape:connector-curvature="0" />
    </marker>
    <marker
       style="overflow:visible"
       id="marker3325"
       refX="0"
       refY="0"
       orient="auto"
       inkscape:stockid="Arrow2LendEg">
      <path
         transform="matrix(-1.1,0,0,-1.1,-1.1,0)"
         d="M 8.7185878,4.0337352 -2.2072895,0.01601326 8.7185884,-4.0017078 c -1.7454984,2.3720609 -1.7354408,5.6174519 -6e-7,8.035443 z"
         style="fill:#555753;fill-rule:evenodd;stroke:#555753;stroke-width:0.625;stroke-linejoin:round"
         id="path3327"
         inkscape:connector-curvature="0" />
    </marker>
    <marker
       style="overflow:visible"
       id="marker3329"
       refX="0"
       refY="0"
       orient="auto"
       inkscape:stockid="Arrow2LstartLU">
      <path
         transform="matrix(1.1,0,0,1.1,1.1,0)"
         d="M 8.7185878,4.0337352 -2.2072895,0.01601326 8.7185884,-4.0017078 c -1.7454984,2.3720609 -1.7354408,5.6174519 -6e-7,8.035443 z"
         style="fill:#555753;fill-rule:evenodd;stroke:#555753;stroke-width:0.625;stroke-linejoin:round"
         id="path3331"
         inkscape:connector-curvature="0" />
    </marker>
    <marker
       style="overflow:visible"
       id="marker3333"
       refX="0"
       refY="0"
       orient="auto"
       inkscape:stockid="Arrow2LendEg">
      <path
         transform="matrix(-1.1,0,0,-1.1,-1.1,0)"
         d="M 8.7185878,4.0337352 -2.2072895,0.01601326 8.7185884,-4.0017078 c -1.7454984,2.3720609 -1.7354408,5.6174519 -6e-7,8.035443 z"
         style="fill:#555753;fill-rule:evenodd;stroke:#555753;stroke-width:0.625;stroke-linejoin:round"
         id="path3335"
         inkscape:connector-curvature="0" />
    </marker>
    <marker
       style="overflow:visible"
       id="Arrow2LstartW"
       refX="0"
       refY="0"
       orient="auto"
       inkscape:stockid="Arrow2LstartW">
      <path
         transform="matrix(1.1,0,0,1.1,1.1,0)"
         d="M 8.7185878,4.0337352 -2.2072895,0.01601326 8.7185884,-4.0017078 c -1.7454984,2.3720609 -1.7354408,5.6174519 -6e-7,8.035443 z"
         style="fill:#555753;fill-rule:evenodd;stroke:#555753;stroke-width:0.625;stroke-linejoin:round"
         id="path5294"
         inkscape:connector-curvature="0" />
    </marker>
    <marker
       style="overflow:visible"
       id="Arrow2LendK"
       refX="0"
       refY="0"
       orient="auto"
       inkscape:stockid="Arrow2LendK">
      <path
         transform="matrix(-1.1,0,0,-1.1,-1.1,0)"
         d="M 8.7185878,4.0337352 -2.2072895,0.01601326 8.7185884,-4.0017078 c -1.7454984,2.3720609 -1.7354408,5.6174519 -6e-7,8.035443 z"
         style="fill:#555753;fill-rule:evenodd;stroke:#555753;stroke-width:0.625;stroke-linejoin:round"
         id="path5297"
         inkscape:connector-curvature="0" />
    </marker>
    <marker
       style="overflow:visible"
       id="marker3341"
       refX="0"
       refY="0"
       orient="auto"
       inkscape:stockid="Arrow2LstartW">
      <path
         transform="matrix(1.1,0,0,1.1,1.1,0)"
         d="M 8.7185878,4.0337352 -2.2072895,0.01601326 8.7185884,-4.0017078 c -1.7454984,2.3720609 -1.7354408,5.6174519 -6e-7,8.035443 z"
         style="fill:#555753;fill-rule:evenodd;stroke:#555753;stroke-width:0.625;stroke-linejoin:round"
         id="path3343"
         inkscape:connector-curvature="0" />
    </marker>
    <marker
       style="overflow:visible"
       id="marker3345"
       refX="0"
       refY="0"
       orient="auto"
       inkscape:stockid="Arrow2LendK">
      <path
         transform="matrix(-1.1,0,0,-1.1,-1.1,0)"
         d="M 8.7185878,4.0337352 -2.2072895,0.01601326 8.7185884,-4.0017078 c -1.7454984,2.3720609 -1.7354408,5.6174519 -6e-7,8.035443 z"
         style="fill:#555753;fill-rule:evenodd;stroke:#555753;stroke-width:0.625;stroke-linejoin:round"
         id="path3347"
         inkscape:connector-curvature="0" />
    </marker>
    <marker
       style="overflow:visible"
       id="marker3349"
       refX="0"
       refY="0"
       orient="auto"
       inkscape:stockid="Arrow2LstartW">
      <path
         transform="matrix(1.1,0,0,1.1,1.1,0)"
         d="M 8.7185878,4.0337352 -2.2072895,0.01601326 8.7185884,-4.0017078 c -1.7454984,2.3720609 -1.7354408,5.6174519 -6e-7,8.035443 z"
         style="fill:#555753;fill-rule:evenodd;stroke:#555753;stroke-width:0.625;stroke-linejoin:round"
         id="path3351"
         inkscape:connector-curvature="0" />
    </marker>
    <marker
       style="overflow:visible"
       id="marker3353"
       refX="0"
       refY="0"
       orient="auto"
       inkscape:stockid="Arrow2LendK">
      <path
         transform="matrix(-1.1,0,0,-1.1,-1.1,0)"
         d="M 8.7185878,4.0337352 -2.2072895,0.01601326 8.7185884,-4.0017078 c -1.7454984,2.3720609 -1.7354408,5.6174519 -6e-7,8.035443 z"
         style="fill:#555753;fill-rule:evenodd;stroke:#555753;stroke-width:0.625;stroke-linejoin:round"
         id="path3355"
         inkscape:connector-curvature="0" />
    </marker>
    <marker
       style="overflow:visible"
       id="marker3357"
       refX="0"
       refY="0"
       orient="auto"
       inkscape:stockid="Arrow2LstartW">
      <path
         transform="matrix(1.1,0,0,1.1,1.1,0)"
         d="M 8.7185878,4.0337352 -2.2072895,0.01601326 8.7185884,-4.0017078 c -1.7454984,2.3720609 -1.7354408,5.6174519 -6e-7,8.035443 z"
         style="fill:#555753;fill-rule:evenodd;stroke:#555753;stroke-width:0.625;stroke-linejoin:round"
         id="path3359"
         inkscape:connector-curvature="0" />
    </marker>
    <marker
       style="overflow:visible"
       id="marker3361"
       refX="0"
       refY="0"
       orient="auto"
       inkscape:stockid="Arrow2LendK">
      <path
         transform="matrix(-1.1,0,0,-1.1,-1.1,0)"
         d="M 8.7185878,4.0337352 -2.2072895,0.01601326 8.7185884,-4.0017078 c -1.7454984,2.3720609 -1.7354408,5.6174519 -6e-7,8.035443 z"
         style="fill:#555753;fill-rule:evenodd;stroke:#555753;stroke-width:0.625;stroke-linejoin:round"
         id="path3363"
         inkscape:connector-curvature="0" />
    </marker>
    <marker
       style="overflow:visible"
       id="marker3365"
       refX="0"
       refY="0"
       orient="auto"
       inkscape:stockid="Arrow2LstartW">
      <path
         transform="matrix(1.1,0,0,1.1,1.1,0)"
         d="M 8.7185878,4.0337352 -2.2072895,0.01601326 8.7185884,-4.0017078 c -1.7454984,2.3720609 -1.7354408,5.6174519 -6e-7,8.035443 z"
         style="fill:#555753;fill-rule:evenodd;stroke:#555753;stroke-width:0.625;stroke-linejoin:round"
         id="path3367"
         inkscape:connector-curvature="0" />
    </marker>
    <marker
       style="overflow:visible"
       id="marker3369"
       refX="0"
       refY="0"
       orient="auto"
       inkscape:stockid="Arrow2LendK">
      <path
         transform="matrix(-1.1,0,0,-1.1,-1.1,0)"
         d="M 8.7185878,4.0337352 -2.2072895,0.01601326 8.7185884,-4.0017078 c -1.7454984,2.3720609 -1.7354408,5.6174519 -6e-7,8.035443 z"
         style="fill:#555753;fill-rule:evenodd;stroke:#555753;stroke-width:0.625;stroke-linejoin:round"
         id="path3371"
         inkscape:connector-curvature="0" />
    </marker>
    <marker
       style="overflow:visible"
       id="Arrow2LstartT"
       refX="0"
       refY="0"
       orient="auto"
       inkscape:stockid="Arrow2LstartT">
      <path
         transform="matrix(1.1,0,0,1.1,1.1,0)"
         d="M 8.7185878,4.0337352 -2.2072895,0.01601326 8.7185884,-4.0017078 c -1.7454984,2.3720609 -1.7354408,5.6174519 -6e-7,8.035443 z"
         style="fill:#555753;fill-rule:evenodd;stroke:#555753;stroke-width:0.625;stroke-linejoin:round"
         id="path5288"
         inkscape:connector-curvature="0" />
    </marker>
    <marker
       style="overflow:visible"
       id="Arrow2Lendj"
       refX="0"
       refY="0"
       orient="auto"
       inkscape:stockid="Arrow2Lendj">
      <path
         transform="matrix(-1.1,0,0,-1.1,-1.1,0)"
         d="M 8.7185878,4.0337352 -2.2072895,0.01601326 8.7185884,-4.0017078 c -1.7454984,2.3720609 -1.7354408,5.6174519 -6e-7,8.035443 z"
         style="fill:#555753;fill-rule:evenodd;stroke:#555753;stroke-width:0.625;stroke-linejoin:round"
         id="path5291"
         inkscape:connector-curvature="0" />
    </marker>
    <marker
       style="overflow:visible"
       id="Arrow2LstartJ"
       refX="0"
       refY="0"
       orient="auto"
       inkscape:stockid="Arrow2LstartJ">
      <path
         transform="matrix(1.1,0,0,1.1,1.1,0)"
         d="M 8.7185878,4.0337352 -2.2072895,0.01601326 8.7185884,-4.0017078 c -1.7454984,2.3720609 -1.7354408,5.6174519 -6e-7,8.035443 z"
         style="fill:#555753;fill-rule:evenodd;stroke:#555753;stroke-width:0.625;stroke-linejoin:round"
         id="path5300"
         inkscape:connector-curvature="0" />
    </marker>
    <marker
       style="overflow:visible"
       id="Arrow2LendJ"
       refX="0"
       refY="0"
       orient="auto"
       inkscape:stockid="Arrow2LendJ">
      <path
         transform="matrix(-1.1,0,0,-1.1,-1.1,0)"
         d="M 8.7185878,4.0337352 -2.2072895,0.01601326 8.7185884,-4.0017078 c -1.7454984,2.3720609 -1.7354408,5.6174519 -6e-7,8.035443 z"
         style="fill:#555753;fill-rule:evenodd;stroke:#555753;stroke-width:0.625;stroke-linejoin:round"
         id="path5303"
         inkscape:connector-curvature="0" />
    </marker>
    <marker
       style="overflow:visible"
       id="marker3381"
       refX="0"
       refY="0"
       orient="auto"
       inkscape:stockid="Arrow2LstartH">
      <path
         transform="matrix(1.1,0,0,1.1,1.1,0)"
         d="M 8.7185878,4.0337352 -2.2072895,0.01601326 8.7185884,-4.0017078 c -1.7454984,2.3720609 -1.7354408,5.6174519 -6e-7,8.035443 z"
         style="fill:#555753;fill-rule:evenodd;stroke:#555753;stroke-width:0.625;stroke-linejoin:round"
         id="path3383"
         inkscape:connector-curvature="0" />
    </marker>
    <marker
       style="overflow:visible"
       id="marker3385"
       refX="0"
       refY="0"
       orient="auto"
       inkscape:stockid="Arrow2LendQ">
      <path
         transform="matrix(-1.1,0,0,-1.1,-1.1,0)"
         d="M 8.7185878,4.0337352 -2.2072895,0.01601326 8.7185884,-4.0017078 c -1.7454984,2.3720609 -1.7354408,5.6174519 -6e-7,8.035443 z"
         style="fill:#555753;fill-rule:evenodd;stroke:#555753;stroke-width:0.625;stroke-linejoin:round"
         id="path3387"
         inkscape:connector-curvature="0" />
    </marker>
    <marker
       style="overflow:visible"
       id="Arrow2MendjU"
       refX="0"
       refY="0"
       orient="auto"
       inkscape:stockid="Arrow2MendjU">
      <path
         transform="scale(-0.6,-0.6)"
         d="M 8.7185878,4.0337352 -2.2072895,0.01601326 8.7185884,-4.0017078 c -1.7454984,2.3720609 -1.7354408,5.6174519 -6e-7,8.035443 z"
         style="fill:#c4a000;fill-rule:evenodd;stroke:#c4a000;stroke-width:0.625;stroke-linejoin:round"
         id="path4363"
         inkscape:connector-curvature="0" />
    </marker>
  </defs>
  <metadata
     id="metadata3248">
    <rdf:RDF>
      <cc:Work
         rdf:about="">
        <dc:format>image/svg+xml</dc:format>
        <dc:type
           rdf:resource="http://purl.org/dc/dcmitype/StillImage" />
        <dc:title></dc:title>
      </cc:Work>
    </rdf:RDF>
  </metadata>
  <g
     transform="translate(-603.02309,-141.38128)"
     id="layer1"
     inkscape:groupmode="layer"
     inkscape:label="Layer 1">
    <path
       style="fill:#fce94f;fill-opacity:0.46666667;stroke:none"
       d="m 653.55766,554.57036 0,291.56791 624.91124,0 0,-383.28976 z"
       id="path4268"
       inkscape:connector-curvature="0"
       sodipodi:nodetypes="ccccc" />
    <path
       style="fill:#729fcf;fill-opacity:0.4;stroke:none"
       d="m 653.72494,554.56867 624.73416,-91.77488 0,-270.64589 -625.43601,0 z"
       id="path3261"
       inkscape:connector-curvature="0" />
    <path
       inkscape:connector-curvature="0"
       id="path4273"
       d="m 927.53616,191.88128 0,654.20448"
       style="fill:none;stroke:#babdb6;stroke-width:1;stroke-linecap:butt;stroke-linejoin:miter;stroke-miterlimit:4;stroke-opacity:1;stroke-dasharray:none" />
    <path
       inkscape:connector-curvature="0"
       id="path6258"
       d="m 678.26736,191.88128 0,654.20448"
       style="fill:none;stroke:#babdb6;stroke-width:1;stroke-linecap:butt;stroke-linejoin:miter;stroke-miterlimit:4;stroke-opacity:1;stroke-dasharray:none" />
    <path
       style="fill:none;stroke:#babdb6;stroke-width:0.99999988px;stroke-linecap:butt;stroke-linejoin:miter;stroke-opacity:1"
       d="m 654.38015,777.71076 624.19795,0"
       id="path6300"
       inkscape:connector-curvature="0" />
    <path
       style="fill:none;stroke:#babdb6;stroke-width:1;stroke-linecap:butt;stroke-linejoin:miter;stroke-miterlimit:4;stroke-opacity:1;stroke-dasharray:none"
       d="m 740.58455,191.88128 0,654.20448"
       id="path4152"
       inkscape:connector-curvature="0" />
    <path
       inkscape:connector-curvature="0"
       id="path4154"
       d="m 802.90175,191.88128 0,654.20448"
       style="fill:none;stroke:#babdb6;stroke-width:1;stroke-linecap:butt;stroke-linejoin:miter;stroke-miterlimit:4;stroke-opacity:1;stroke-dasharray:none" />
    <path
       style="fill:none;stroke:#babdb6;stroke-width:1;stroke-linecap:butt;stroke-linejoin:miter;stroke-miterlimit:4;stroke-opacity:1;stroke-dasharray:none"
       d="m 865.21894,191.88128 0,654.20448"
       id="path4156"
       inkscape:connector-curvature="0" />
    <path
       inkscape:connector-curvature="0"
       id="path4164"
       d="m 654.38015,715.3687 624.19795,0"
       style="fill:none;stroke:#babdb6;stroke-width:0.99999988px;stroke-linecap:butt;stroke-linejoin:miter;stroke-opacity:1" />
    <path
       style="fill:none;stroke:#babdb6;stroke-width:0.99999988px;stroke-linecap:butt;stroke-linejoin:miter;stroke-opacity:1"
       d="m 654.38015,653.02662 624.19795,0"
       id="path4166"
       inkscape:connector-curvature="0" />
    <path
       inkscape:connector-curvature="0"
       id="path4168"
       d="m 654.38015,590.68453 624.19795,0"
       style="fill:none;stroke:#babdb6;stroke-width:0.99999988px;stroke-linecap:butt;stroke-linejoin:miter;stroke-opacity:1" />
    <path
       style="fill:none;stroke:#babdb6;stroke-width:0.99999988px;stroke-linecap:butt;stroke-linejoin:miter;stroke-opacity:1"
       d="m 654.38015,528.34245 624.19795,0"
       id="path4170"
       inkscape:connector-curvature="0" />
    <path
       inkscape:connector-curvature="0"
       id="path4172"
       d="m 654.85424,466.00036 623.24976,0"
       style="fill:none;stroke:#babdb6;stroke-width:0.99999988px;stroke-linecap:butt;stroke-linejoin:miter;stroke-opacity:1" />
    <path
       style="fill:none;stroke:#babdb6;stroke-width:0.99999988px;stroke-linecap:butt;stroke-linejoin:miter;stroke-opacity:1"
       d="m 654.38015,403.65827 624.19795,0"
       id="path4174"
       inkscape:connector-curvature="0" />
    <path
       inkscape:connector-curvature="0"
       id="path4176"
       d="m 654.38015,341.31619 624.19795,0"
       style="fill:none;stroke:#babdb6;stroke-width:0.99999988px;stroke-linecap:butt;stroke-linejoin:miter;stroke-opacity:1" />
    <path
       inkscape:connector-curvature="0"
       id="path4180"
       d="m 654.38015,278.9741 624.19795,0"
       style="fill:none;stroke:#babdb6;stroke-width:0.99999988px;stroke-linecap:butt;stroke-linejoin:miter;stroke-opacity:1" />
    <path
       inkscape:connector-curvature="0"
       id="path4261"
       d="m 654.38015,840.05284 624.19795,0"
       style="fill:none;stroke:#babdb6;stroke-width:0.99999988px;stroke-linecap:butt;stroke-linejoin:miter;stroke-opacity:1" />
    <path
       style="fill:none;stroke:#babdb6;stroke-width:0.99999988px;stroke-linecap:butt;stroke-linejoin:miter;stroke-opacity:1"
       d="m 654.38015,216.63202 624.19795,0"
       id="path4267"
       inkscape:connector-curvature="0" />
    <path
       sodipodi:type="arc"
       style="fill:#babdb6;fill-opacity:1;stroke:#888a85;stroke-width:2.4070158;stroke-linecap:round;stroke-linejoin:miter;stroke-miterlimit:4;stroke-opacity:1;stroke-dasharray:none;stroke-dashoffset:0"
       id="path4093"
       sodipodi:cx="2906.4285"
       sodipodi:cy="1448.7908"
       sodipodi:rx="16.428572"
       sodipodi:ry="16.428572"
       d="m 2922.857,1448.7908 c 0,9.0732 -7.3553,16.4285 -16.4285,16.4285 -9.0733,0 -16.4286,-7.3553 -16.4286,-16.4285 0,-9.0733 7.3553,-16.4286 16.4286,-16.4286 9.0732,0 16.4285,7.3553 16.4285,16.4286 z"
       transform="matrix(1.246406,0,0,1.246307,-2746.6728,-1456.2518)" />
    <path
       style="fill:#555753;stroke:#555753;stroke-width:3.29999971;stroke-linecap:butt;stroke-linejoin:miter;stroke-miterlimit:4;stroke-opacity:1;stroke-dasharray:39.60000367, 3.30000027;stroke-dashoffset:0"
       d="M 655.2067,554.64052 1275.7101,463.7079"
       id="path4289"
       inkscape:connector-curvature="0" />
    <path
       style="fill:none;stroke:#888a85;stroke-width:4;stroke-linecap:butt;stroke-linejoin:miter;stroke-miterlimit:4;stroke-opacity:1;stroke-dasharray:4.00000017, 4.00000017;stroke-dashoffset:0;marker-end:url(#Arrow2Mendv)"
       d="M 1005.042,679.35784 888.80879,381.41456"
       id="path8054"
       inkscape:connector-curvature="0" />
    <path
       style="fill:none;stroke:#babdb6;stroke-width:1;stroke-linecap:butt;stroke-linejoin:miter;stroke-miterlimit:4;stroke-opacity:1;stroke-dasharray:none"
       d="m 1175.5362,191.88128 0,654.20448"
       id="path3450"
       inkscape:connector-curvature="0" />
    <path
       inkscape:connector-curvature="0"
       id="path3454"
       d="m 988.5846,191.88128 0,654.20448"
       style="fill:none;stroke:#babdb6;stroke-width:1;stroke-linecap:butt;stroke-linejoin:miter;stroke-miterlimit:4;stroke-opacity:1;stroke-dasharray:none" />
    <path
       style="fill:none;stroke:#babdb6;stroke-width:1;stroke-linecap:butt;stroke-linejoin:miter;stroke-miterlimit:4;stroke-opacity:1;stroke-dasharray:none"
       d="m 1050.9017,191.88128 0,654.20448"
       id="path3456"
       inkscape:connector-curvature="0" />
    <path
       inkscape:connector-curvature="0"
       id="path3458"
       d="m 1113.2189,191.88128 0,654.20448"
       style="fill:none;stroke:#babdb6;stroke-width:1;stroke-linecap:butt;stroke-linejoin:miter;stroke-miterlimit:4;stroke-opacity:1;stroke-dasharray:none" />
    <path
       style="fill:none;stroke:#babdb6;stroke-width:1;stroke-linecap:butt;stroke-linejoin:miter;stroke-miterlimit:4;stroke-opacity:1;stroke-dasharray:none"
       d="m 1237.2189,191.88128 0,654.20448"
       id="path3464"
       inkscape:connector-curvature="0" />
    <text
       transform="matrix(0.98971829,-0.14313926,0.14293046,0.98971702,0,0)"
       xml:space="preserve"
       style="font-size:21.52247429px;font-style:normal;font-weight:normal;text-align:center;line-height:125%;letter-spacing:0px;word-spacing:0px;text-anchor:middle;fill:#555753;fill-opacity:1;stroke:none;font-family:Sans"
       x="1021.6735"
       y="628.19989"
       id="text5586"
       sodipodi:linespacing="125%"><tspan
         sodipodi:role="line"
         id="tspan5588"
         x="1021.6735"
         y="628.19989"
         style="font-size:32px;font-style:normal;font-variant:normal;font-weight:normal;font-stretch:normal;text-align:center;text-anchor:middle;fill:#555753;font-family:Open Sans;-inkscape-font-specification:Open Sans">beslissingsgrens</tspan></text>
    <path
       transform="matrix(1.246406,0,0,1.246307,-2601.8866,-1098.4346)"
       d="m 2922.857,1448.7908 c 0,9.0732 -7.3553,16.4285 -16.4285,16.4285 -9.0733,0 -16.4286,-7.3553 -16.4286,-16.4285 0,-9.0733 7.3553,-16.4286 16.4286,-16.4286 9.0732,0 16.4285,7.3553 16.4285,16.4286 z"
       sodipodi:ry="16.428572"
       sodipodi:rx="16.428572"
       sodipodi:cy="1448.7908"
       sodipodi:cx="2906.4285"
       id="path3260"
       style="fill:#babdb6;fill-opacity:1;stroke:#888a85;stroke-width:2.4070158;stroke-linecap:round;stroke-linejoin:miter;stroke-miterlimit:4;stroke-opacity:1;stroke-dasharray:none;stroke-dashoffset:0"
       sodipodi:type="arc" />
  </g>
</svg>
